M48
; DRILL file {KiCad 5.1.8-db9833491~88~ubuntu20.04.1} date Sun Dec 20 17:47:53 2020
; FORMAT={-:-/ absolute / metric / decimal}
; #@! TF.CreationDate,2020-12-20T17:47:53+01:00
; #@! TF.GenerationSoftware,Kicad,Pcbnew,5.1.8-db9833491~88~ubuntu20.04.1
FMAT,2
METRIC
T1C0.300
T2C0.600
T3C0.800
T4C0.900
T5C1.000
T6C0.650
T7C3.200
%
G90
G05
T1
X0.65Y45.05
X0.65Y43.5
X0.65Y41.7
X0.65Y39.8
X0.65Y37.85
X0.65Y35.9
X0.65Y34.35
X0.65Y32.45
X0.65Y30.75
X0.65Y26.8
X0.65Y24.5
X0.65Y22.2
X0.65Y18.2
X0.65Y16.7
X0.65Y15.1
X0.65Y13.1
X0.65Y11.05
X0.65Y8.85
X0.65Y7.05
X0.65Y5.3
X0.65Y3.65
X2.55Y2.65
X2.7Y46.25
X3.55Y48.05
X3.6Y0.65
X4.0Y25.25
X4.05Y23.7
X4.6Y22.6
X4.65Y26.2
X5.4Y30.05
X6.65Y48.05
X7.05Y0.65
X7.25Y28.5
X7.25Y20.15
X7.25Y18.95
X7.45Y7.8
X7.53Y20.98
X7.55Y27.81
X7.85Y25.85
X7.85Y11.65
X8.5Y3.9
X8.5Y27.8
X9.6Y46.7
X9.62Y20.72
X9.8Y22.0
X10.0Y13.85
X10.05Y11.0
X10.05Y0.65
X10.5Y48.05
X10.55Y21.38
X11.2Y22.0
X11.6Y20.77
X11.65Y11.55
X12.25Y30.35
X12.6Y29.05
X12.94Y25.89
X13.2Y41.75
X13.2Y40.9
X13.35Y33.5
X13.55Y17.45
X13.6Y0.65
X13.7Y46.2
X13.9Y44.05
X13.9Y35.25
X14.05Y45.5
X14.1Y27.4
X14.45Y39.25
X14.45Y28.7
X14.51Y21.52
X14.57Y19.84
X14.6Y37.85
X14.6Y36.7
X14.75Y22.75
X14.8Y42.0
X15.05Y48.05
X15.08Y18.79
X15.2Y33.45
X15.55Y47.1
X15.85Y15.7
X15.9Y13.2
X16.05Y29.05
X16.85Y0.65
X16.9Y33.4
X17.45Y18.75
X18.05Y21.65
X18.05Y20.45
X18.95Y27.0
X19.25Y48.05
X19.55Y29.45
X19.85Y35.5
X20.05Y0.65
X20.11Y18.81
X21.0Y27.25
X21.55Y46.2
X21.7Y28.25
X21.8Y11.05
X22.05Y48.05
X22.05Y33.9
X22.2Y16.2
X22.45Y27.4
X22.8Y35.5
X23.05Y25.4
X23.05Y22.45
X23.1Y13.45
X23.15Y14.6
X23.15Y0.65
X23.4Y41.0
X23.65Y46.2
X23.65Y33.5
X23.65Y29.45
X23.75Y7.5
X23.95Y25.8
X24.3Y18.137
X24.55Y24.05
X24.6Y6.66
X24.65Y11.45
X24.75Y48.05
X24.85Y20.2
X24.95Y29.1
X25.0Y30.65
X25.2Y18.8
X25.25Y5.1
X25.6Y41.05
X26.2Y32.8
X26.25Y10.25
X26.4Y21.65
X26.5Y18.65
X26.5Y17.8
X26.6Y19.75
X26.6Y0.65
X26.65Y26.0
X26.65Y25.15
X26.75Y6.69
X26.85Y46.15
X27.35Y29.05
X27.8Y5.1
X28.05Y10.65
X28.17Y6.7
X28.35Y48.05
X28.4Y21.65
X28.5Y17.8
X28.55Y32.2
X28.65Y25.75
X28.8Y29.15
X28.8Y24.6
X29.1Y5.25
X29.4Y12.2
X29.6Y44.2
X29.8Y0.65
X30.05Y23.2
X30.5Y35.3
X30.5Y33.25
X30.75Y25.05
X30.85Y48.05
X30.95Y17.8
X31.1Y7.35
X31.15Y22.0
X31.5Y24.3
X31.65Y42.25
X31.75Y15.6
X31.75Y14.4
X31.75Y13.0
X31.75Y11.7
X31.75Y10.55
X31.9Y27.55
X32.15Y4.75
X32.35Y9.8
X32.45Y8.8
X32.5Y30.3
X32.6Y33.85
X33.05Y0.65
X33.25Y15.1
X33.3Y13.75
X33.35Y9.6
X33.5Y44.15
X33.55Y30.3
X33.55Y27.55
X33.6Y48.05
X33.65Y17.4
X33.8Y38.1
X34.4Y33.85
X35.05Y39.5
X36.35Y0.65
X36.4Y48.05
X36.75Y19.25
X36.75Y18.05
X37.05Y4.95
X37.75Y37.45
X37.8Y26.8
X37.8Y24.25
X37.9Y17.9
X38.299Y16.949
X38.8Y23.1
X38.899Y16.349
X38.9Y21.1
X39.0Y42.35
X39.0Y40.5
X39.05Y27.05
X39.15Y11.6
X39.2Y29.35
X39.25Y28.05
X39.35Y8.95
X39.45Y48.05
X39.55Y20.0
X39.7Y6.6
X40.05Y37.45
X40.25Y28.25
X40.25Y17.1
X40.25Y0.65
X40.35Y32.24
X40.6Y21.9
X40.6Y19.5
X40.65Y24.9
X40.8Y10.8
X41.05Y29.95
X41.9Y39.35
X41.95Y14.95
X42.15Y12.15
X42.55Y27.65
X42.6Y48.05
X42.7Y19.8
X42.9Y32.3
X43.0Y30.6
X43.45Y44.0
X43.45Y10.95
X43.7Y4.8
X43.8Y0.65
X44.35Y25.65
X44.5Y42.2
X44.5Y40.65
X44.6Y17.9
X44.6Y14.95
X44.7Y34.1
X44.95Y12.15
X45.6Y48.05
X45.8Y38.45
X45.8Y24.25
X45.8Y17.95
X46.45Y43.0
X46.65Y12.15
X46.7Y38.7
X46.7Y9.55
X46.8Y4.75
X46.9Y35.7
X46.95Y14.9
X47.0Y0.65
X47.1Y37.45
X47.1Y26.25
X47.25Y20.0
X47.3Y30.55
X47.4Y11.25
X47.5Y17.85
X48.35Y23.05
X48.35Y20.0
X48.35Y9.65
X48.4Y33.45
X48.7Y15.5
X48.8Y38.9
X48.9Y48.05
X48.9Y36.05
X49.2Y23.0
X49.3Y33.45
X49.6Y12.9
X49.65Y25.7
X50.0Y30.25
X50.0Y4.75
X50.2Y23.05
X50.25Y12.6
X50.3Y0.65
X50.6Y42.95
X50.6Y9.75
X50.75Y40.15
X50.75Y35.6
X50.8Y18.55
X51.05Y7.6
X51.1Y23.1
X51.25Y25.65
X51.5Y18.55
X51.7Y29.7
X51.75Y48.05
X51.75Y13.3
X51.85Y40.15
X51.85Y9.75
X51.95Y34.05
X52.0Y42.95
X52.2Y15.4
X52.25Y30.25
X52.25Y23.05
X52.85Y34.25
X52.85Y29.35
X53.0Y31.7
X53.0Y9.8
X53.2Y37.1
X53.3Y4.8
X53.7Y19.25
X53.85Y0.65
X53.95Y34.6
X54.1Y20.85
X54.25Y37.1
X54.25Y24.1
X54.45Y12.0
X55.35Y24.1
X55.5Y48.05
X56.0Y37.1
X56.0Y32.45
X56.0Y29.05
X56.0Y19.6
X56.0Y17.9
X56.0Y16.25
X56.3Y24.1
X56.3Y5.8
X56.45Y0.65
X56.8Y43.0
X56.95Y12.0
X57.35Y24.1
X57.76Y16.12
X57.85Y36.9
X57.9Y28.8
X57.9Y27.9
X57.9Y17.9
X57.95Y31.3
X57.95Y32.55
X58.0Y5.75
X58.1Y20.65
X58.112Y16.988
X58.15Y26.2
X58.44Y16.12
X58.5Y43.0
X58.85Y28.15
X59.0Y37.1
X59.0Y32.4
X59.2Y30.75
X59.2Y18.0
X59.235Y11.315
X59.25Y12.25
X59.3Y0.65
X59.35Y48.05
X59.9Y37.35
X59.9Y32.55
X59.9Y26.7
X59.9Y21.9
X60.2Y19.45
X60.4Y29.55
X60.65Y16.35
X60.85Y11.95
X61.4Y32.55
X61.45Y16.35
X62.25Y31.9
X62.25Y0.65
X62.8Y4.25
X62.95Y43.6
X63.0Y48.05
X63.0Y8.05
X63.05Y9.95
X63.1Y16.8
X63.2Y38.65
X63.25Y31.55
X63.3Y11.95
X63.4Y19.4
X63.5Y26.5
X63.85Y21.85
X64.45Y16.9
X64.5Y27.45
X64.9Y19.5
X65.0Y43.6
X65.15Y0.65
X65.4Y21.95
X65.5Y31.95
X65.9Y48.05
X65.95Y37.9
X66.6Y11.0
X67.25Y2.0
X67.45Y5.5
X67.8Y46.5
X68.2Y0.65
X68.7Y48.05
X69.2Y11.0
X69.25Y38.5
X70.35Y5.55
X71.25Y48.05
X71.45Y0.65
X71.75Y34.3
X71.75Y32.05
X71.75Y29.35
X71.75Y26.95
X71.75Y21.5
X71.75Y19.35
X71.75Y16.65
X71.75Y14.1
X71.75Y11.6
X71.8Y37.45
X71.85Y24.45
X73.7Y46.4
X74.15Y2.05
X74.3Y48.05
X74.35Y9.8
X74.5Y0.65
X75.05Y12.95
X75.3Y25.5
X75.3Y23.0
X75.3Y20.55
X75.3Y18.2
X75.3Y16.05
X75.35Y35.3
X75.35Y33.25
X75.35Y30.6
X75.35Y28.25
X76.15Y46.45
X76.15Y2.35
X76.2Y5.45
X76.3Y43.45
X76.7Y48.05
X76.7Y0.65
X77.65Y46.2
X77.65Y2.55
X79.65Y45.1
X79.65Y43.4
X79.65Y40.65
X79.65Y37.8
X79.65Y35.15
X79.65Y32.35
X79.65Y29.35
X79.65Y26.0
X79.65Y22.6
X79.65Y19.8
X79.65Y17.15
X79.65Y14.25
X79.65Y12.0
X79.65Y9.2
X79.65Y6.4
X79.65Y3.65
T3
X66.7Y3.87
X74.32Y3.87
X66.7Y44.83
X74.32Y44.83
X20.23Y44.83
X20.23Y42.29
X20.23Y39.75
X20.23Y37.21
X27.85Y44.83
X27.85Y42.29
X27.85Y39.75
X27.85Y37.21
T4
X48.4Y46.1
X48.4Y43.56
X41.9Y46.1
X41.9Y43.56
X61.4Y5.14
X61.4Y2.6
X61.4Y46.1
X61.4Y43.56
X54.9Y46.1
X54.9Y43.56
X54.9Y5.14
X54.9Y2.6
X35.4Y46.1
X35.4Y43.56
X48.4Y5.14
X48.4Y2.6
X35.4Y5.14
X35.4Y2.6
X41.9Y5.14
X41.9Y2.6
T5
X32.74Y35.7
X35.28Y35.7
X37.82Y35.7
X40.36Y35.7
X42.9Y35.7
X10.54Y6.9
X10.54Y4.36
X13.08Y6.9
X13.08Y4.36
X15.62Y6.9
X15.62Y4.36
X18.16Y6.9
X18.16Y4.36
X20.7Y6.9
X20.7Y4.36
X66.675Y35.78
X66.675Y33.24
X66.675Y30.7
X66.675Y28.16
X66.675Y25.62
X66.675Y23.08
X66.675Y20.54
X66.675Y18.0
X66.675Y15.46
X66.675Y12.92
X69.215Y35.78
X69.215Y33.24
X69.215Y30.7
X69.215Y28.16
X69.215Y25.62
X69.215Y23.08
X69.215Y20.54
X69.215Y18.0
X69.215Y15.46
X69.215Y12.92
T6
X4.85Y27.24
X4.85Y21.46
T7
X4.0Y33.7
X4.0Y15.0
X76.8Y11.5
X76.75Y37.2
T2
G00X1.6Y28.67
M15
G01X0.8Y28.67
M16
G05
G00X1.6Y20.03
M15
G01X0.8Y20.03
M16
G05
G00X5.9Y28.67
M15
G01X4.8Y28.67
M16
G05
G00X5.9Y20.03
M15
G01X4.8Y20.03
M16
G05
T0
M30
