%TF.GenerationSoftware,KiCad,Pcbnew,5.1.8-db9833491~88~ubuntu20.04.1*%
%TF.CreationDate,2020-12-20T17:47:45+01:00*%
%TF.ProjectId,QuadUart,51756164-5561-4727-942e-6b696361645f,rev?*%
%TF.SameCoordinates,PX8f0d180PY5e20ae0*%
%TF.FileFunction,Soldermask,Bot*%
%TF.FilePolarity,Negative*%
%FSLAX46Y46*%
G04 Gerber Fmt 4.6, Leading zero omitted, Abs format (unit mm)*
G04 Created by KiCad (PCBNEW 5.1.8-db9833491~88~ubuntu20.04.1) date 2020-12-20 17:47:45*
%MOMM*%
%LPD*%
G01*
G04 APERTURE LIST*
%ADD10C,0.150000*%
%ADD11C,0.300000*%
%ADD12C,1.000000*%
%ADD13C,0.010000*%
%ADD14O,1.700000X1.700000*%
%ADD15R,1.700000X1.700000*%
%ADD16C,3.200000*%
%ADD17O,2.100000X1.000000*%
%ADD18O,1.800000X1.000000*%
%ADD19C,0.650000*%
%ADD20O,1.600000X1.600000*%
%ADD21R,1.600000X1.600000*%
%ADD22C,1.700000*%
%ADD23C,1.800000*%
%ADD24R,1.800000X1.800000*%
G04 APERTURE END LIST*
D10*
X5947619Y45147739D02*
X5900000Y45242977D01*
X5804761Y45338215D01*
X5661904Y45481072D01*
X5614285Y45576310D01*
X5614285Y45671548D01*
X5852380Y45623929D02*
X5804761Y45719167D01*
X5709523Y45814405D01*
X5519047Y45862024D01*
X5185714Y45862024D01*
X4995238Y45814405D01*
X4900000Y45719167D01*
X4852380Y45623929D01*
X4852380Y45433453D01*
X4900000Y45338215D01*
X4995238Y45242977D01*
X5185714Y45195358D01*
X5519047Y45195358D01*
X5709523Y45242977D01*
X5804761Y45338215D01*
X5852380Y45433453D01*
X5852380Y45623929D01*
X5185714Y44338215D02*
X5852380Y44338215D01*
X5185714Y44766786D02*
X5709523Y44766786D01*
X5804761Y44719167D01*
X5852380Y44623929D01*
X5852380Y44481072D01*
X5804761Y44385834D01*
X5757142Y44338215D01*
X5852380Y43433453D02*
X5328571Y43433453D01*
X5233333Y43481072D01*
X5185714Y43576310D01*
X5185714Y43766786D01*
X5233333Y43862024D01*
X5804761Y43433453D02*
X5852380Y43528691D01*
X5852380Y43766786D01*
X5804761Y43862024D01*
X5709523Y43909643D01*
X5614285Y43909643D01*
X5519047Y43862024D01*
X5471428Y43766786D01*
X5471428Y43528691D01*
X5423809Y43433453D01*
X5852380Y42528691D02*
X4852380Y42528691D01*
X5804761Y42528691D02*
X5852380Y42623929D01*
X5852380Y42814405D01*
X5804761Y42909643D01*
X5757142Y42957262D01*
X5661904Y43004881D01*
X5376190Y43004881D01*
X5280952Y42957262D01*
X5233333Y42909643D01*
X5185714Y42814405D01*
X5185714Y42623929D01*
X5233333Y42528691D01*
X4852380Y42052500D02*
X5661904Y42052500D01*
X5757142Y42004881D01*
X5804761Y41957262D01*
X5852380Y41862024D01*
X5852380Y41671548D01*
X5804761Y41576310D01*
X5757142Y41528691D01*
X5661904Y41481072D01*
X4852380Y41481072D01*
X5852380Y40576310D02*
X5328571Y40576310D01*
X5233333Y40623929D01*
X5185714Y40719167D01*
X5185714Y40909643D01*
X5233333Y41004881D01*
X5804761Y40576310D02*
X5852380Y40671548D01*
X5852380Y40909643D01*
X5804761Y41004881D01*
X5709523Y41052500D01*
X5614285Y41052500D01*
X5519047Y41004881D01*
X5471428Y40909643D01*
X5471428Y40671548D01*
X5423809Y40576310D01*
X5852380Y40100120D02*
X5185714Y40100120D01*
X5376190Y40100120D02*
X5280952Y40052500D01*
X5233333Y40004881D01*
X5185714Y39909643D01*
X5185714Y39814405D01*
X5185714Y39623929D02*
X5185714Y39242977D01*
X4852380Y39481072D02*
X5709523Y39481072D01*
X5804761Y39433453D01*
X5852380Y39338215D01*
X5852380Y39242977D01*
X4852380Y38290596D02*
X5852380Y37957262D01*
X4852380Y37623929D01*
X4947619Y37338215D02*
X4900000Y37290596D01*
X4852380Y37195358D01*
X4852380Y36957262D01*
X4900000Y36862024D01*
X4947619Y36814405D01*
X5042857Y36766786D01*
X5138095Y36766786D01*
X5280952Y36814405D01*
X5852380Y37385834D01*
X5852380Y36766786D01*
X6502380Y45957262D02*
X6502380Y45385834D01*
X7502380Y45671548D02*
X6502380Y45671548D01*
X6502380Y45147739D02*
X7502380Y44481072D01*
X6502380Y44481072D02*
X7502380Y45147739D01*
X6454761Y43385834D02*
X7740476Y44242977D01*
X7502380Y42481072D02*
X7026190Y42814405D01*
X7502380Y43052500D02*
X6502380Y43052500D01*
X6502380Y42671548D01*
X6550000Y42576310D01*
X6597619Y42528691D01*
X6692857Y42481072D01*
X6835714Y42481072D01*
X6930952Y42528691D01*
X6978571Y42576310D01*
X7026190Y42671548D01*
X7026190Y43052500D01*
X6502380Y42147739D02*
X7502380Y41481072D01*
X6502380Y41481072D02*
X7502380Y42147739D01*
X6454761Y40385834D02*
X7740476Y41242977D01*
X6550000Y39528691D02*
X6502380Y39623929D01*
X6502380Y39766786D01*
X6550000Y39909643D01*
X6645238Y40004881D01*
X6740476Y40052500D01*
X6930952Y40100120D01*
X7073809Y40100120D01*
X7264285Y40052500D01*
X7359523Y40004881D01*
X7454761Y39909643D01*
X7502380Y39766786D01*
X7502380Y39671548D01*
X7454761Y39528691D01*
X7407142Y39481072D01*
X7073809Y39481072D01*
X7073809Y39671548D01*
X7502380Y39052500D02*
X6502380Y39052500D01*
X7502380Y38481072D01*
X6502380Y38481072D01*
X7502380Y38004881D02*
X6502380Y38004881D01*
X6502380Y37766786D01*
X6550000Y37623929D01*
X6645238Y37528691D01*
X6740476Y37481072D01*
X6930952Y37433453D01*
X7073809Y37433453D01*
X7264285Y37481072D01*
X7359523Y37528691D01*
X7454761Y37623929D01*
X7502380Y37766786D01*
X7502380Y38004881D01*
X6454761Y36290596D02*
X7740476Y37147739D01*
X6502380Y36100120D02*
X7502380Y35766786D01*
X6502380Y35433453D01*
X7407142Y34528691D02*
X7454761Y34576310D01*
X7502380Y34719167D01*
X7502380Y34814405D01*
X7454761Y34957262D01*
X7359523Y35052500D01*
X7264285Y35100120D01*
X7073809Y35147739D01*
X6930952Y35147739D01*
X6740476Y35100120D01*
X6645238Y35052500D01*
X6550000Y34957262D01*
X6502380Y34814405D01*
X6502380Y34719167D01*
X6550000Y34576310D01*
X6597619Y34528691D01*
X7407142Y33528691D02*
X7454761Y33576310D01*
X7502380Y33719167D01*
X7502380Y33814405D01*
X7454761Y33957262D01*
X7359523Y34052500D01*
X7264285Y34100120D01*
X7073809Y34147739D01*
X6930952Y34147739D01*
X6740476Y34100120D01*
X6645238Y34052500D01*
X6550000Y33957262D01*
X6502380Y33814405D01*
X6502380Y33719167D01*
X6550000Y33576310D01*
X6597619Y33528691D01*
X6454761Y32385834D02*
X7740476Y33242977D01*
X7502380Y32052500D02*
X6502380Y32052500D01*
X6502380Y31814405D01*
X6550000Y31671548D01*
X6645238Y31576310D01*
X6740476Y31528691D01*
X6930952Y31481072D01*
X7073809Y31481072D01*
X7264285Y31528691D01*
X7359523Y31576310D01*
X7454761Y31671548D01*
X7502380Y31814405D01*
X7502380Y32052500D01*
X6502380Y31195358D02*
X6502380Y30623929D01*
X7502380Y30909643D02*
X6502380Y30909643D01*
X7502380Y29719167D02*
X7026190Y30052500D01*
X7502380Y30290596D02*
X6502380Y30290596D01*
X6502380Y29909643D01*
X6550000Y29814405D01*
X6597619Y29766786D01*
X6692857Y29719167D01*
X6835714Y29719167D01*
X6930952Y29766786D01*
X6978571Y29814405D01*
X7026190Y29909643D01*
X7026190Y30290596D01*
X8247619Y45862024D02*
X8200000Y45814405D01*
X8152380Y45719167D01*
X8152380Y45481072D01*
X8200000Y45385834D01*
X8247619Y45338215D01*
X8342857Y45290596D01*
X8438095Y45290596D01*
X8580952Y45338215D01*
X9152380Y45909643D01*
X9152380Y45290596D01*
X8628571Y43766786D02*
X8676190Y43623929D01*
X8723809Y43576310D01*
X8819047Y43528691D01*
X8961904Y43528691D01*
X9057142Y43576310D01*
X9104761Y43623929D01*
X9152380Y43719167D01*
X9152380Y44100120D01*
X8152380Y44100120D01*
X8152380Y43766786D01*
X8200000Y43671548D01*
X8247619Y43623929D01*
X8342857Y43576310D01*
X8438095Y43576310D01*
X8533333Y43623929D01*
X8580952Y43671548D01*
X8628571Y43766786D01*
X8628571Y44100120D01*
X9152380Y42671548D02*
X8628571Y42671548D01*
X8533333Y42719167D01*
X8485714Y42814405D01*
X8485714Y43004881D01*
X8533333Y43100120D01*
X9104761Y42671548D02*
X9152380Y42766786D01*
X9152380Y43004881D01*
X9104761Y43100120D01*
X9009523Y43147739D01*
X8914285Y43147739D01*
X8819047Y43100120D01*
X8771428Y43004881D01*
X8771428Y42766786D01*
X8723809Y42671548D01*
X8485714Y42195358D02*
X9152380Y42195358D01*
X8580952Y42195358D02*
X8533333Y42147739D01*
X8485714Y42052501D01*
X8485714Y41909643D01*
X8533333Y41814405D01*
X8628571Y41766786D01*
X9152380Y41766786D01*
X9152380Y41290596D02*
X8152380Y41290596D01*
X8771428Y41195358D02*
X9152380Y40909643D01*
X8485714Y40909643D02*
X8866666Y41290596D01*
X9104761Y40528691D02*
X9152380Y40433453D01*
X9152380Y40242977D01*
X9104761Y40147739D01*
X9009523Y40100120D01*
X8961904Y40100120D01*
X8866666Y40147739D01*
X8819047Y40242977D01*
X8819047Y40385834D01*
X8771428Y40481072D01*
X8676190Y40528691D01*
X8628571Y40528691D01*
X8533333Y40481072D01*
X8485714Y40385834D01*
X8485714Y40242977D01*
X8533333Y40147739D01*
X9533333Y38623929D02*
X9485714Y38671548D01*
X9342857Y38766786D01*
X9247619Y38814405D01*
X9104761Y38862024D01*
X8866666Y38909643D01*
X8676190Y38909643D01*
X8438095Y38862024D01*
X8295238Y38814405D01*
X8200000Y38766786D01*
X8057142Y38671548D01*
X8009523Y38623929D01*
X8247619Y38290596D02*
X8200000Y38242977D01*
X8152380Y38147739D01*
X8152380Y37909643D01*
X8200000Y37814405D01*
X8247619Y37766786D01*
X8342857Y37719167D01*
X8438095Y37719167D01*
X8580952Y37766786D01*
X9152380Y38338215D01*
X9152380Y37719167D01*
X9152380Y37385834D02*
X8485714Y36862024D01*
X8485714Y37385834D02*
X9152380Y36862024D01*
X8247619Y36528691D02*
X8200000Y36481072D01*
X8152380Y36385834D01*
X8152380Y36147739D01*
X8200000Y36052501D01*
X8247619Y36004881D01*
X8342857Y35957262D01*
X8438095Y35957262D01*
X8580952Y36004881D01*
X9152380Y36576310D01*
X9152380Y35957262D01*
X8152380Y34766786D02*
X8961904Y34766786D01*
X9057142Y34719167D01*
X9104761Y34671548D01*
X9152380Y34576310D01*
X9152380Y34385834D01*
X9104761Y34290596D01*
X9057142Y34242977D01*
X8961904Y34195358D01*
X8152380Y34195358D01*
X8866666Y33766786D02*
X8866666Y33290596D01*
X9152380Y33862024D02*
X8152380Y33528691D01*
X9152380Y33195358D01*
X9152380Y32290596D02*
X8676190Y32623929D01*
X9152380Y32862024D02*
X8152380Y32862024D01*
X8152380Y32481072D01*
X8200000Y32385834D01*
X8247619Y32338215D01*
X8342857Y32290596D01*
X8485714Y32290596D01*
X8580952Y32338215D01*
X8628571Y32385834D01*
X8676190Y32481072D01*
X8676190Y32862024D01*
X8152380Y32004881D02*
X8152380Y31433453D01*
X9152380Y31719167D02*
X8152380Y31719167D01*
X9104761Y31147739D02*
X9152380Y31052501D01*
X9152380Y30862024D01*
X9104761Y30766786D01*
X9009523Y30719167D01*
X8961904Y30719167D01*
X8866666Y30766786D01*
X8819047Y30862024D01*
X8819047Y31004881D01*
X8771428Y31100120D01*
X8676190Y31147739D01*
X8628571Y31147739D01*
X8533333Y31100120D01*
X8485714Y31004881D01*
X8485714Y30862024D01*
X8533333Y30766786D01*
X9533333Y30385834D02*
X9485714Y30338215D01*
X9342857Y30242977D01*
X9247619Y30195358D01*
X9104761Y30147739D01*
X8866666Y30100120D01*
X8676190Y30100120D01*
X8438095Y30147739D01*
X8295238Y30195358D01*
X8200000Y30242977D01*
X8057142Y30338215D01*
X8009523Y30385834D01*
X9754761Y45100120D02*
X11040476Y45957262D01*
X10135714Y44862024D02*
X10802380Y44671548D01*
X10326190Y44481072D01*
X10802380Y44290596D01*
X10135714Y44100120D01*
X10802380Y42957262D02*
X9802380Y42957262D01*
X9802380Y42576310D01*
X9850000Y42481072D01*
X9897619Y42433453D01*
X9992857Y42385834D01*
X10135714Y42385834D01*
X10230952Y42433453D01*
X10278571Y42481072D01*
X10326190Y42576310D01*
X10326190Y42957262D01*
X10802380Y41814405D02*
X10754761Y41909643D01*
X10707142Y41957262D01*
X10611904Y42004881D01*
X10326190Y42004881D01*
X10230952Y41957262D01*
X10183333Y41909643D01*
X10135714Y41814405D01*
X10135714Y41671548D01*
X10183333Y41576310D01*
X10230952Y41528691D01*
X10326190Y41481072D01*
X10611904Y41481072D01*
X10707142Y41528691D01*
X10754761Y41576310D01*
X10802380Y41671548D01*
X10802380Y41814405D01*
X10135714Y41147739D02*
X10802380Y40957262D01*
X10326190Y40766786D01*
X10802380Y40576310D01*
X10135714Y40385834D01*
X10754761Y39623929D02*
X10802380Y39719167D01*
X10802380Y39909643D01*
X10754761Y40004881D01*
X10659523Y40052500D01*
X10278571Y40052500D01*
X10183333Y40004881D01*
X10135714Y39909643D01*
X10135714Y39719167D01*
X10183333Y39623929D01*
X10278571Y39576310D01*
X10373809Y39576310D01*
X10469047Y40052500D01*
X10802380Y39147739D02*
X10135714Y39147739D01*
X10326190Y39147739D02*
X10230952Y39100120D01*
X10183333Y39052500D01*
X10135714Y38957262D01*
X10135714Y38862024D01*
X10754761Y37814405D02*
X10802380Y37719167D01*
X10802380Y37528691D01*
X10754761Y37433453D01*
X10659523Y37385834D01*
X10611904Y37385834D01*
X10516666Y37433453D01*
X10469047Y37528691D01*
X10469047Y37671548D01*
X10421428Y37766786D01*
X10326190Y37814405D01*
X10278571Y37814405D01*
X10183333Y37766786D01*
X10135714Y37671548D01*
X10135714Y37528691D01*
X10183333Y37433453D01*
X10135714Y36528691D02*
X10802380Y36528691D01*
X10135714Y36957262D02*
X10659523Y36957262D01*
X10754761Y36909643D01*
X10802380Y36814405D01*
X10802380Y36671548D01*
X10754761Y36576310D01*
X10707142Y36528691D01*
X10135714Y36052500D02*
X11135714Y36052500D01*
X10183333Y36052500D02*
X10135714Y35957262D01*
X10135714Y35766786D01*
X10183333Y35671548D01*
X10230952Y35623929D01*
X10326190Y35576310D01*
X10611904Y35576310D01*
X10707142Y35623929D01*
X10754761Y35671548D01*
X10802380Y35766786D01*
X10802380Y35957262D01*
X10754761Y36052500D01*
X10135714Y35147739D02*
X11135714Y35147739D01*
X10183333Y35147739D02*
X10135714Y35052500D01*
X10135714Y34862024D01*
X10183333Y34766786D01*
X10230952Y34719167D01*
X10326190Y34671548D01*
X10611904Y34671548D01*
X10707142Y34719167D01*
X10754761Y34766786D01*
X10802380Y34862024D01*
X10802380Y35052500D01*
X10754761Y35147739D01*
X10802380Y34100120D02*
X10754761Y34195358D01*
X10659523Y34242977D01*
X9802380Y34242977D01*
X10135714Y33814405D02*
X10802380Y33576310D01*
X10135714Y33338215D02*
X10802380Y33576310D01*
X11040476Y33671548D01*
X11088095Y33719167D01*
X11135714Y33814405D01*
X12452380Y45290596D02*
X12452380Y45862024D01*
X12452380Y45576310D02*
X11452380Y45576310D01*
X11595238Y45671548D01*
X11690476Y45766786D01*
X11738095Y45862024D01*
X12357142Y44862024D02*
X12404761Y44814405D01*
X12452380Y44862024D01*
X12404761Y44909643D01*
X12357142Y44862024D01*
X12452380Y44862024D01*
X11880952Y44242977D02*
X11833333Y44338215D01*
X11785714Y44385834D01*
X11690476Y44433453D01*
X11642857Y44433453D01*
X11547619Y44385834D01*
X11500000Y44338215D01*
X11452380Y44242977D01*
X11452380Y44052500D01*
X11500000Y43957262D01*
X11547619Y43909643D01*
X11642857Y43862024D01*
X11690476Y43862024D01*
X11785714Y43909643D01*
X11833333Y43957262D01*
X11880952Y44052500D01*
X11880952Y44242977D01*
X11928571Y44338215D01*
X11976190Y44385834D01*
X12071428Y44433453D01*
X12261904Y44433453D01*
X12357142Y44385834D01*
X12404761Y44338215D01*
X12452380Y44242977D01*
X12452380Y44052500D01*
X12404761Y43957262D01*
X12357142Y43909643D01*
X12261904Y43862024D01*
X12071428Y43862024D01*
X11976190Y43909643D01*
X11928571Y43957262D01*
X11880952Y44052500D01*
X12071428Y43433453D02*
X12071428Y42671548D01*
X11452380Y41719167D02*
X11452380Y42195358D01*
X11928571Y42242977D01*
X11880952Y42195358D01*
X11833333Y42100120D01*
X11833333Y41862024D01*
X11880952Y41766786D01*
X11928571Y41719167D01*
X12023809Y41671548D01*
X12261904Y41671548D01*
X12357142Y41719167D01*
X12404761Y41766786D01*
X12452380Y41862024D01*
X12452380Y42100120D01*
X12404761Y42195358D01*
X12357142Y42242977D01*
X12357142Y41242977D02*
X12404761Y41195358D01*
X12452380Y41242977D01*
X12404761Y41290596D01*
X12357142Y41242977D01*
X12452380Y41242977D01*
X11452380Y40290596D02*
X11452380Y40766786D01*
X11928571Y40814405D01*
X11880952Y40766786D01*
X11833333Y40671548D01*
X11833333Y40433453D01*
X11880952Y40338215D01*
X11928571Y40290596D01*
X12023809Y40242977D01*
X12261904Y40242977D01*
X12357142Y40290596D01*
X12404761Y40338215D01*
X12452380Y40433453D01*
X12452380Y40671548D01*
X12404761Y40766786D01*
X12357142Y40814405D01*
X11452380Y39957262D02*
X12452380Y39623929D01*
X11452380Y39290596D01*
D11*
X77657142Y26757143D02*
X77585714Y26971429D01*
X77514285Y27042858D01*
X77371428Y27114286D01*
X77157142Y27114286D01*
X77014285Y27042858D01*
X76942857Y26971429D01*
X76871428Y26828572D01*
X76871428Y26257143D01*
X78371428Y26257143D01*
X78371428Y26757143D01*
X78300000Y26900000D01*
X78228571Y26971429D01*
X78085714Y27042858D01*
X77942857Y27042858D01*
X77800000Y26971429D01*
X77728571Y26900000D01*
X77657142Y26757143D01*
X77657142Y26257143D01*
X76871428Y28400000D02*
X77657142Y28400000D01*
X77800000Y28328572D01*
X77871428Y28185715D01*
X77871428Y27900000D01*
X77800000Y27757143D01*
X76942857Y28400000D02*
X76871428Y28257143D01*
X76871428Y27900000D01*
X76942857Y27757143D01*
X77085714Y27685715D01*
X77228571Y27685715D01*
X77371428Y27757143D01*
X77442857Y27900000D01*
X77442857Y28257143D01*
X77514285Y28400000D01*
X77871428Y29114286D02*
X76871428Y29114286D01*
X77728571Y29114286D02*
X77800000Y29185715D01*
X77871428Y29328572D01*
X77871428Y29542858D01*
X77800000Y29685715D01*
X77657142Y29757143D01*
X76871428Y29757143D01*
X76871428Y30471429D02*
X78371428Y30471429D01*
X77442857Y30614286D02*
X76871428Y31042858D01*
X77871428Y31042858D02*
X77300000Y30471429D01*
X78228571Y32757143D02*
X78300000Y32828572D01*
X78371428Y32971429D01*
X78371428Y33328572D01*
X78300000Y33471429D01*
X78228571Y33542858D01*
X78085714Y33614286D01*
X77942857Y33614286D01*
X77728571Y33542858D01*
X76871428Y32685715D01*
X76871428Y33614286D01*
X77657142Y15757143D02*
X77585714Y15971429D01*
X77514285Y16042858D01*
X77371428Y16114286D01*
X77157142Y16114286D01*
X77014285Y16042858D01*
X76942857Y15971429D01*
X76871428Y15828572D01*
X76871428Y15257143D01*
X78371428Y15257143D01*
X78371428Y15757143D01*
X78300000Y15900000D01*
X78228571Y15971429D01*
X78085714Y16042858D01*
X77942857Y16042858D01*
X77800000Y15971429D01*
X77728571Y15900000D01*
X77657142Y15757143D01*
X77657142Y15257143D01*
X76871428Y17400000D02*
X77657142Y17400000D01*
X77800000Y17328572D01*
X77871428Y17185715D01*
X77871428Y16900000D01*
X77800000Y16757143D01*
X76942857Y17400000D02*
X76871428Y17257143D01*
X76871428Y16900000D01*
X76942857Y16757143D01*
X77085714Y16685715D01*
X77228571Y16685715D01*
X77371428Y16757143D01*
X77442857Y16900000D01*
X77442857Y17257143D01*
X77514285Y17400000D01*
X77871428Y18114286D02*
X76871428Y18114286D01*
X77728571Y18114286D02*
X77800000Y18185715D01*
X77871428Y18328572D01*
X77871428Y18542858D01*
X77800000Y18685715D01*
X77657142Y18757143D01*
X76871428Y18757143D01*
X76871428Y19471429D02*
X78371428Y19471429D01*
X77442857Y19614286D02*
X76871428Y20042858D01*
X77871428Y20042858D02*
X77300000Y19471429D01*
X76871428Y22614286D02*
X76871428Y21757143D01*
X76871428Y22185715D02*
X78371428Y22185715D01*
X78157142Y22042858D01*
X78014285Y21900000D01*
X77942857Y21757143D01*
D10*
X79400000Y24350000D02*
X70600000Y24350000D01*
D11*
X74497857Y35046429D02*
X74497857Y36546429D01*
X74140714Y36546429D01*
X73926428Y36475000D01*
X73783571Y36332143D01*
X73712142Y36189286D01*
X73640714Y35903572D01*
X73640714Y35689286D01*
X73712142Y35403572D01*
X73783571Y35260715D01*
X73926428Y35117858D01*
X74140714Y35046429D01*
X74497857Y35046429D01*
X73212142Y36546429D02*
X72355000Y36546429D01*
X72783571Y35046429D02*
X72783571Y36546429D01*
X70997857Y35046429D02*
X71497857Y35760715D01*
X71855000Y35046429D02*
X71855000Y36546429D01*
X71283571Y36546429D01*
X71140714Y36475000D01*
X71069285Y36403572D01*
X70997857Y36260715D01*
X70997857Y36046429D01*
X71069285Y35903572D01*
X71140714Y35832143D01*
X71283571Y35760715D01*
X71855000Y35760715D01*
X74497857Y33067858D02*
X73355000Y33067858D01*
X73926428Y32496429D02*
X73926428Y33639286D01*
X71569285Y33853572D02*
X71497857Y33925000D01*
X71355000Y33996429D01*
X70997857Y33996429D01*
X70855000Y33925000D01*
X70783571Y33853572D01*
X70712142Y33710715D01*
X70712142Y33567858D01*
X70783571Y33353572D01*
X71640714Y32496429D01*
X70712142Y32496429D01*
X73712142Y31375000D02*
X73855000Y31446429D01*
X74069285Y31446429D01*
X74283571Y31375000D01*
X74426428Y31232143D01*
X74497857Y31089286D01*
X74569285Y30803572D01*
X74569285Y30589286D01*
X74497857Y30303572D01*
X74426428Y30160715D01*
X74283571Y30017858D01*
X74069285Y29946429D01*
X73926428Y29946429D01*
X73712142Y30017858D01*
X73640714Y30089286D01*
X73640714Y30589286D01*
X73926428Y30589286D01*
X72997857Y29946429D02*
X72997857Y31446429D01*
X72140714Y29946429D01*
X72140714Y31446429D01*
X71426428Y29946429D02*
X71426428Y31446429D01*
X71069285Y31446429D01*
X70855000Y31375000D01*
X70712142Y31232143D01*
X70640714Y31089286D01*
X70569285Y30803572D01*
X70569285Y30589286D01*
X70640714Y30303572D01*
X70712142Y30160715D01*
X70855000Y30017858D01*
X71069285Y29946429D01*
X71426428Y29946429D01*
X73640714Y27396429D02*
X74140714Y28110715D01*
X74497857Y27396429D02*
X74497857Y28896429D01*
X73926428Y28896429D01*
X73783571Y28825000D01*
X73712142Y28753572D01*
X73640714Y28610715D01*
X73640714Y28396429D01*
X73712142Y28253572D01*
X73783571Y28182143D01*
X73926428Y28110715D01*
X74497857Y28110715D01*
X73140714Y28896429D02*
X72140714Y27396429D01*
X72140714Y28896429D02*
X73140714Y27396429D01*
X74712142Y26346429D02*
X73855000Y26346429D01*
X74283571Y24846429D02*
X74283571Y26346429D01*
X73497857Y26346429D02*
X72497857Y24846429D01*
X72497857Y26346429D02*
X73497857Y24846429D01*
X74497857Y22296429D02*
X74497857Y23796429D01*
X74140714Y23796429D01*
X73926428Y23725000D01*
X73783571Y23582143D01*
X73712142Y23439286D01*
X73640714Y23153572D01*
X73640714Y22939286D01*
X73712142Y22653572D01*
X73783571Y22510715D01*
X73926428Y22367858D01*
X74140714Y22296429D01*
X74497857Y22296429D01*
X73212142Y23796429D02*
X72355000Y23796429D01*
X72783571Y22296429D02*
X72783571Y23796429D01*
X70997857Y22296429D02*
X71497857Y23010715D01*
X71855000Y22296429D02*
X71855000Y23796429D01*
X71283571Y23796429D01*
X71140714Y23725000D01*
X71069285Y23653572D01*
X70997857Y23510715D01*
X70997857Y23296429D01*
X71069285Y23153572D01*
X71140714Y23082143D01*
X71283571Y23010715D01*
X71855000Y23010715D01*
X74497857Y20317858D02*
X73355000Y20317858D01*
X73926428Y19746429D02*
X73926428Y20889286D01*
X70712142Y19746429D02*
X71569285Y19746429D01*
X71140714Y19746429D02*
X71140714Y21246429D01*
X71283571Y21032143D01*
X71426428Y20889286D01*
X71569285Y20817858D01*
X73712142Y18625000D02*
X73855000Y18696429D01*
X74069285Y18696429D01*
X74283571Y18625000D01*
X74426428Y18482143D01*
X74497857Y18339286D01*
X74569285Y18053572D01*
X74569285Y17839286D01*
X74497857Y17553572D01*
X74426428Y17410715D01*
X74283571Y17267858D01*
X74069285Y17196429D01*
X73926428Y17196429D01*
X73712142Y17267858D01*
X73640714Y17339286D01*
X73640714Y17839286D01*
X73926428Y17839286D01*
X72997857Y17196429D02*
X72997857Y18696429D01*
X72140714Y17196429D01*
X72140714Y18696429D01*
X71426428Y17196429D02*
X71426428Y18696429D01*
X71069285Y18696429D01*
X70855000Y18625000D01*
X70712142Y18482143D01*
X70640714Y18339286D01*
X70569285Y18053572D01*
X70569285Y17839286D01*
X70640714Y17553572D01*
X70712142Y17410715D01*
X70855000Y17267858D01*
X71069285Y17196429D01*
X71426428Y17196429D01*
X73640714Y14646429D02*
X74140714Y15360715D01*
X74497857Y14646429D02*
X74497857Y16146429D01*
X73926428Y16146429D01*
X73783571Y16075000D01*
X73712142Y16003572D01*
X73640714Y15860715D01*
X73640714Y15646429D01*
X73712142Y15503572D01*
X73783571Y15432143D01*
X73926428Y15360715D01*
X74497857Y15360715D01*
X73140714Y16146429D02*
X72140714Y14646429D01*
X72140714Y16146429D02*
X73140714Y14646429D01*
X74712142Y13596429D02*
X73855000Y13596429D01*
X74283571Y12096429D02*
X74283571Y13596429D01*
X73497857Y13596429D02*
X72497857Y12096429D01*
X72497857Y13596429D02*
X73497857Y12096429D01*
D12*
X79797569Y3499652D02*
G75*
G03*
X76800000Y500000I502431J-3499652D01*
G01*
X79800000Y3500000D02*
X79800000Y45200000D01*
X76800348Y48197569D02*
G75*
G03*
X79800000Y45200000I3499652J502431D01*
G01*
X76800000Y48200000D02*
X3500000Y48200000D01*
X502431Y45200348D02*
G75*
G03*
X3500000Y48200000I-502431J3499652D01*
G01*
X500000Y3500000D02*
X500000Y45200000D01*
X3499652Y502431D02*
G75*
G03*
X500000Y3500000I-3499652J-502431D01*
G01*
X76800000Y500000D02*
X3500000Y500000D01*
D13*
%TO.C,MARK1*%
G36*
X36515636Y14673781D02*
G01*
X36493371Y14645224D01*
X36466581Y14605180D01*
X36440179Y14561109D01*
X36433722Y14549427D01*
X36419423Y14523376D01*
X36395961Y14481072D01*
X36364559Y14424705D01*
X36326443Y14356465D01*
X36282836Y14278540D01*
X36234963Y14193122D01*
X36184048Y14102398D01*
X36131315Y14008560D01*
X36127825Y14002354D01*
X35867432Y13539333D01*
X35432568Y13539333D01*
X35172175Y14002354D01*
X35119366Y14096321D01*
X35068294Y14187315D01*
X35020184Y14273149D01*
X34976260Y14351631D01*
X34937746Y14420573D01*
X34905867Y14477785D01*
X34881847Y14521078D01*
X34866911Y14548261D01*
X34866278Y14549427D01*
X34840829Y14593305D01*
X34813659Y14635179D01*
X34789680Y14667591D01*
X34784365Y14673781D01*
X34747954Y14714083D01*
X34561748Y14714083D01*
X34530329Y14671361D01*
X34519515Y14653228D01*
X34500826Y14617995D01*
X34475298Y14567765D01*
X34443965Y14504637D01*
X34407861Y14430714D01*
X34368021Y14348097D01*
X34325479Y14258887D01*
X34284140Y14171298D01*
X34210923Y14015417D01*
X34145731Y13876790D01*
X34087591Y13753512D01*
X34035528Y13643676D01*
X33988570Y13545377D01*
X33945744Y13456711D01*
X33906077Y13375771D01*
X33868596Y13300653D01*
X33832327Y13229450D01*
X33796298Y13160258D01*
X33759535Y13091170D01*
X33721066Y13020282D01*
X33679917Y12945687D01*
X33635116Y12865482D01*
X33585688Y12777759D01*
X33530662Y12680614D01*
X33469064Y12572141D01*
X33453359Y12544500D01*
X33083542Y11893625D01*
X33080012Y11775648D01*
X33078932Y11720602D01*
X33080094Y11680002D01*
X33084313Y11647174D01*
X33092402Y11615445D01*
X33103567Y11582585D01*
X33149471Y11473811D01*
X33206356Y11374327D01*
X33277726Y11278573D01*
X33336984Y11212048D01*
X33353193Y11197020D01*
X33384892Y11169665D01*
X33431019Y11130849D01*
X33490512Y11081437D01*
X33562310Y11022296D01*
X33645350Y10954292D01*
X33738570Y10878289D01*
X33840908Y10795155D01*
X33951302Y10705754D01*
X34068691Y10610954D01*
X34192011Y10511618D01*
X34320201Y10408614D01*
X34452199Y10302807D01*
X34456660Y10299236D01*
X35512278Y9454167D01*
X35652577Y9454956D01*
X35792875Y9455745D01*
X36833629Y10289685D01*
X36964624Y10394728D01*
X37091778Y10496845D01*
X37214030Y10595174D01*
X37330316Y10688856D01*
X37439576Y10777029D01*
X37540748Y10858834D01*
X37632769Y10933410D01*
X37714578Y10999896D01*
X37785112Y11057432D01*
X37843311Y11105156D01*
X37888111Y11142209D01*
X37918451Y11167730D01*
X37932945Y11180542D01*
X37976400Y11226465D01*
X38023137Y11281961D01*
X38068757Y11341257D01*
X38108860Y11398583D01*
X38139044Y11448165D01*
X38143628Y11456889D01*
X38160872Y11494025D01*
X38180379Y11540631D01*
X38196525Y11582839D01*
X38208723Y11619143D01*
X38216335Y11650651D01*
X38220171Y11684031D01*
X38221042Y11725948D01*
X38220668Y11743601D01*
X38068070Y11743601D01*
X38056596Y11698350D01*
X38034206Y11643575D01*
X38002635Y11582277D01*
X37963617Y11517456D01*
X37918889Y11452114D01*
X37870184Y11389251D01*
X37819238Y11331869D01*
X37797066Y11309620D01*
X37782390Y11296728D01*
X37753584Y11272557D01*
X37712342Y11238472D01*
X37660358Y11195840D01*
X37599325Y11146026D01*
X37530937Y11090397D01*
X37456888Y11030319D01*
X37378872Y10967158D01*
X37298582Y10902280D01*
X37217711Y10837051D01*
X37137955Y10772837D01*
X37061005Y10711004D01*
X36988557Y10652919D01*
X36922304Y10599946D01*
X36863939Y10553454D01*
X36815156Y10514807D01*
X36777649Y10485371D01*
X36753111Y10466514D01*
X36743237Y10459600D01*
X36743176Y10459591D01*
X36745594Y10468985D01*
X36753751Y10494753D01*
X36766464Y10533270D01*
X36782547Y10580906D01*
X36787645Y10595829D01*
X36855490Y10778016D01*
X36936300Y10967960D01*
X37027489Y11160629D01*
X37126473Y11350988D01*
X37230666Y11534005D01*
X37337482Y11704644D01*
X37415654Y11818538D01*
X37457555Y11873097D01*
X37507955Y11932602D01*
X37563144Y11993201D01*
X37619411Y12051042D01*
X37673048Y12102271D01*
X37720344Y12143036D01*
X37747482Y12163142D01*
X37779890Y12184038D01*
X37805619Y12199253D01*
X37819543Y12205775D01*
X37820084Y12205833D01*
X37827365Y12197087D01*
X37843060Y12172936D01*
X37865366Y12136516D01*
X37892482Y12090963D01*
X37922605Y12039412D01*
X37953936Y11984997D01*
X37984671Y11930854D01*
X38013010Y11880119D01*
X38037151Y11835925D01*
X38055292Y11801409D01*
X38065633Y11779705D01*
X38066892Y11776326D01*
X38068070Y11743601D01*
X38220668Y11743601D01*
X38219988Y11775648D01*
X38216458Y11893625D01*
X37945547Y12370427D01*
X37731945Y12370427D01*
X37724268Y12360743D01*
X37701900Y12345911D01*
X37669622Y12329084D01*
X37668445Y12328532D01*
X37639010Y12312916D01*
X37608760Y12292439D01*
X37574535Y12264483D01*
X37533174Y12226429D01*
X37481517Y12175661D01*
X37470333Y12164418D01*
X37373522Y12059980D01*
X37280408Y11945114D01*
X37189519Y11817651D01*
X37099385Y11675420D01*
X37008533Y11516252D01*
X36932196Y11371042D01*
X36846841Y11198096D01*
X36773563Y11038123D01*
X36711026Y10887723D01*
X36657896Y10743493D01*
X36612835Y10602033D01*
X36574727Y10460825D01*
X36560911Y10405819D01*
X36548396Y10357743D01*
X36538239Y10320534D01*
X36531501Y10298130D01*
X36529827Y10293852D01*
X36519898Y10283871D01*
X36495885Y10262841D01*
X36460291Y10232862D01*
X36415621Y10196032D01*
X36364378Y10154449D01*
X36343208Y10137442D01*
X36279084Y10086642D01*
X36229260Y10048570D01*
X36192061Y10022072D01*
X36165809Y10005996D01*
X36148827Y9999188D01*
X36142125Y9999140D01*
X36121160Y10004804D01*
X36087411Y10013806D01*
X36052167Y10023145D01*
X36029674Y10028351D01*
X36004251Y10032475D01*
X35973291Y10035631D01*
X35934187Y10037933D01*
X35884333Y10039494D01*
X35821123Y10040427D01*
X35741948Y10040845D01*
X35644708Y10040863D01*
X35549817Y10040652D01*
X35473343Y10040198D01*
X35412535Y10039346D01*
X35364643Y10037943D01*
X35326919Y10035835D01*
X35296610Y10032866D01*
X35270969Y10028884D01*
X35247244Y10023733D01*
X35222685Y10017260D01*
X35222429Y10017189D01*
X35180309Y10006919D01*
X35147408Y10001642D01*
X35128701Y10002104D01*
X35127179Y10002890D01*
X35089706Y10032006D01*
X35045165Y10067228D01*
X34996370Y10106260D01*
X34946141Y10146803D01*
X34897292Y10186562D01*
X34852642Y10223241D01*
X34815007Y10254541D01*
X34787204Y10278168D01*
X34772050Y10291823D01*
X34770173Y10293957D01*
X34765389Y10308084D01*
X34756694Y10338853D01*
X34745147Y10382329D01*
X34731806Y10434579D01*
X34725273Y10460825D01*
X34723569Y10467136D01*
X34548014Y10467136D01*
X34546683Y10467298D01*
X34536249Y10475595D01*
X34510756Y10495941D01*
X34471673Y10527163D01*
X34420468Y10568085D01*
X34358609Y10617535D01*
X34287567Y10674338D01*
X34208809Y10737320D01*
X34123804Y10805306D01*
X34034021Y10877124D01*
X34030750Y10879741D01*
X33917130Y10970779D01*
X33818788Y11049978D01*
X33734346Y11118560D01*
X33662431Y11177754D01*
X33601667Y11228784D01*
X33550678Y11272876D01*
X33508090Y11311255D01*
X33472526Y11345147D01*
X33442611Y11375779D01*
X33416971Y11404374D01*
X33394230Y11432160D01*
X33373012Y11460362D01*
X33362134Y11475583D01*
X33323095Y11535480D01*
X33289018Y11596373D01*
X33261461Y11654634D01*
X33241978Y11706638D01*
X33232126Y11748758D01*
X33233108Y11776326D01*
X33240917Y11793841D01*
X33257036Y11825054D01*
X33279664Y11866831D01*
X33307000Y11916035D01*
X33337240Y11969533D01*
X33368585Y12024189D01*
X33399233Y12076867D01*
X33427381Y12124433D01*
X33451229Y12163751D01*
X33468974Y12191687D01*
X33478816Y12205105D01*
X33479917Y12205833D01*
X33492397Y12200334D01*
X33517187Y12185843D01*
X33549164Y12165375D01*
X33552519Y12163142D01*
X33593234Y12131903D01*
X33642865Y12087526D01*
X33697700Y12033865D01*
X33754031Y11974772D01*
X33808148Y11914098D01*
X33856342Y11855697D01*
X33884347Y11818538D01*
X33991904Y11659418D01*
X34098650Y11484232D01*
X34202004Y11298007D01*
X34299386Y11105770D01*
X34388213Y10912547D01*
X34465906Y10723366D01*
X34512798Y10594536D01*
X34528825Y10545849D01*
X34540612Y10506226D01*
X34547296Y10478908D01*
X34548014Y10467136D01*
X34723569Y10467136D01*
X34686910Y10602902D01*
X34641804Y10744368D01*
X34588619Y10888626D01*
X34526021Y11039075D01*
X34452673Y11199117D01*
X34367804Y11371042D01*
X34275258Y11545774D01*
X34184641Y11701784D01*
X34094480Y11841241D01*
X34003304Y11966315D01*
X33909643Y12079176D01*
X33829667Y12164418D01*
X33775708Y12217885D01*
X33732643Y12258142D01*
X33697310Y12287806D01*
X33666551Y12309497D01*
X33637205Y12325831D01*
X33631556Y12328532D01*
X33599032Y12345371D01*
X33576262Y12360320D01*
X33568025Y12370223D01*
X33568056Y12370427D01*
X33573637Y12381834D01*
X33588548Y12409564D01*
X33611639Y12451547D01*
X33641757Y12505715D01*
X33677754Y12570001D01*
X33718477Y12642337D01*
X33762777Y12720654D01*
X33771226Y12735552D01*
X33823169Y12827813D01*
X33871220Y12914850D01*
X33916964Y12999770D01*
X33961990Y13085683D01*
X34007885Y13175696D01*
X34056234Y13272917D01*
X34108625Y13380455D01*
X34166645Y13501417D01*
X34224832Y13624000D01*
X34273709Y13727444D01*
X34321320Y13828381D01*
X34366621Y13924588D01*
X34408571Y14013846D01*
X34446128Y14093933D01*
X34478250Y14162628D01*
X34503893Y14217710D01*
X34522017Y14256959D01*
X34527767Y14269583D01*
X34552969Y14324500D01*
X34580078Y14382134D01*
X34605093Y14434037D01*
X34617678Y14459399D01*
X34657408Y14538090D01*
X34676968Y14512316D01*
X34688303Y14494414D01*
X34707123Y14461416D01*
X34731345Y14417108D01*
X34758890Y14365276D01*
X34778391Y14327792D01*
X34806240Y14274351D01*
X34831396Y14227132D01*
X34852006Y14189529D01*
X34866221Y14164934D01*
X34871481Y14157159D01*
X34878917Y14145631D01*
X34895523Y14117607D01*
X34920160Y14075078D01*
X34951691Y14020034D01*
X34988977Y13954467D01*
X35030881Y13880367D01*
X35076263Y13799725D01*
X35099667Y13757996D01*
X35316625Y13370715D01*
X35376963Y13370358D01*
X35423737Y13373156D01*
X35474833Y13380674D01*
X35498249Y13385875D01*
X35558806Y13396402D01*
X35630677Y13400942D01*
X35704872Y13399497D01*
X35772402Y13392066D01*
X35801751Y13385875D01*
X35848766Y13376674D01*
X35899788Y13371127D01*
X35923037Y13370358D01*
X35983375Y13370715D01*
X36200333Y13757996D01*
X36247017Y13841139D01*
X36290786Y13918727D01*
X36330500Y13988767D01*
X36365022Y14049269D01*
X36393214Y14098243D01*
X36413938Y14133696D01*
X36426056Y14153639D01*
X36428519Y14157159D01*
X36436927Y14170176D01*
X36453075Y14198667D01*
X36475114Y14239238D01*
X36501190Y14288497D01*
X36521610Y14327792D01*
X36550223Y14382571D01*
X36576925Y14432392D01*
X36599633Y14473469D01*
X36616268Y14502015D01*
X36623032Y14512316D01*
X36642592Y14538090D01*
X36682322Y14459399D01*
X36704072Y14415194D01*
X36730372Y14360074D01*
X36757218Y14302489D01*
X36772233Y14269583D01*
X36786353Y14238775D01*
X36808496Y14191061D01*
X36837620Y14128661D01*
X36872682Y14053797D01*
X36912641Y13968690D01*
X36956455Y13875561D01*
X37003081Y13776631D01*
X37051476Y13674120D01*
X37075169Y13624000D01*
X37139593Y13488339D01*
X37196965Y13368892D01*
X37248870Y13262553D01*
X37296895Y13166211D01*
X37342628Y13076760D01*
X37387655Y12991092D01*
X37433563Y12906097D01*
X37481938Y12818669D01*
X37528774Y12735552D01*
X37573606Y12656359D01*
X37615074Y12582768D01*
X37652027Y12516846D01*
X37683313Y12460660D01*
X37707783Y12416280D01*
X37724286Y12385773D01*
X37731670Y12371206D01*
X37731945Y12370427D01*
X37945547Y12370427D01*
X37846641Y12544500D01*
X37783339Y12655944D01*
X37726840Y12755607D01*
X37676170Y12845396D01*
X37630358Y12927214D01*
X37588430Y13002969D01*
X37549412Y13074565D01*
X37512332Y13143908D01*
X37476217Y13212903D01*
X37440093Y13283456D01*
X37402988Y13357472D01*
X37363928Y13436856D01*
X37321941Y13523514D01*
X37276053Y13619352D01*
X37225291Y13726275D01*
X37168682Y13846188D01*
X37105253Y13980996D01*
X37034031Y14132606D01*
X37015861Y14171298D01*
X36971728Y14264775D01*
X36929328Y14353625D01*
X36889697Y14435747D01*
X36853868Y14509040D01*
X36822877Y14571402D01*
X36797757Y14620732D01*
X36779543Y14654929D01*
X36769671Y14671361D01*
X36738252Y14714083D01*
X36552047Y14714083D01*
X36515636Y14673781D01*
G37*
X36515636Y14673781D02*
X36493371Y14645224D01*
X36466581Y14605180D01*
X36440179Y14561109D01*
X36433722Y14549427D01*
X36419423Y14523376D01*
X36395961Y14481072D01*
X36364559Y14424705D01*
X36326443Y14356465D01*
X36282836Y14278540D01*
X36234963Y14193122D01*
X36184048Y14102398D01*
X36131315Y14008560D01*
X36127825Y14002354D01*
X35867432Y13539333D01*
X35432568Y13539333D01*
X35172175Y14002354D01*
X35119366Y14096321D01*
X35068294Y14187315D01*
X35020184Y14273149D01*
X34976260Y14351631D01*
X34937746Y14420573D01*
X34905867Y14477785D01*
X34881847Y14521078D01*
X34866911Y14548261D01*
X34866278Y14549427D01*
X34840829Y14593305D01*
X34813659Y14635179D01*
X34789680Y14667591D01*
X34784365Y14673781D01*
X34747954Y14714083D01*
X34561748Y14714083D01*
X34530329Y14671361D01*
X34519515Y14653228D01*
X34500826Y14617995D01*
X34475298Y14567765D01*
X34443965Y14504637D01*
X34407861Y14430714D01*
X34368021Y14348097D01*
X34325479Y14258887D01*
X34284140Y14171298D01*
X34210923Y14015417D01*
X34145731Y13876790D01*
X34087591Y13753512D01*
X34035528Y13643676D01*
X33988570Y13545377D01*
X33945744Y13456711D01*
X33906077Y13375771D01*
X33868596Y13300653D01*
X33832327Y13229450D01*
X33796298Y13160258D01*
X33759535Y13091170D01*
X33721066Y13020282D01*
X33679917Y12945687D01*
X33635116Y12865482D01*
X33585688Y12777759D01*
X33530662Y12680614D01*
X33469064Y12572141D01*
X33453359Y12544500D01*
X33083542Y11893625D01*
X33080012Y11775648D01*
X33078932Y11720602D01*
X33080094Y11680002D01*
X33084313Y11647174D01*
X33092402Y11615445D01*
X33103567Y11582585D01*
X33149471Y11473811D01*
X33206356Y11374327D01*
X33277726Y11278573D01*
X33336984Y11212048D01*
X33353193Y11197020D01*
X33384892Y11169665D01*
X33431019Y11130849D01*
X33490512Y11081437D01*
X33562310Y11022296D01*
X33645350Y10954292D01*
X33738570Y10878289D01*
X33840908Y10795155D01*
X33951302Y10705754D01*
X34068691Y10610954D01*
X34192011Y10511618D01*
X34320201Y10408614D01*
X34452199Y10302807D01*
X34456660Y10299236D01*
X35512278Y9454167D01*
X35652577Y9454956D01*
X35792875Y9455745D01*
X36833629Y10289685D01*
X36964624Y10394728D01*
X37091778Y10496845D01*
X37214030Y10595174D01*
X37330316Y10688856D01*
X37439576Y10777029D01*
X37540748Y10858834D01*
X37632769Y10933410D01*
X37714578Y10999896D01*
X37785112Y11057432D01*
X37843311Y11105156D01*
X37888111Y11142209D01*
X37918451Y11167730D01*
X37932945Y11180542D01*
X37976400Y11226465D01*
X38023137Y11281961D01*
X38068757Y11341257D01*
X38108860Y11398583D01*
X38139044Y11448165D01*
X38143628Y11456889D01*
X38160872Y11494025D01*
X38180379Y11540631D01*
X38196525Y11582839D01*
X38208723Y11619143D01*
X38216335Y11650651D01*
X38220171Y11684031D01*
X38221042Y11725948D01*
X38220668Y11743601D01*
X38068070Y11743601D01*
X38056596Y11698350D01*
X38034206Y11643575D01*
X38002635Y11582277D01*
X37963617Y11517456D01*
X37918889Y11452114D01*
X37870184Y11389251D01*
X37819238Y11331869D01*
X37797066Y11309620D01*
X37782390Y11296728D01*
X37753584Y11272557D01*
X37712342Y11238472D01*
X37660358Y11195840D01*
X37599325Y11146026D01*
X37530937Y11090397D01*
X37456888Y11030319D01*
X37378872Y10967158D01*
X37298582Y10902280D01*
X37217711Y10837051D01*
X37137955Y10772837D01*
X37061005Y10711004D01*
X36988557Y10652919D01*
X36922304Y10599946D01*
X36863939Y10553454D01*
X36815156Y10514807D01*
X36777649Y10485371D01*
X36753111Y10466514D01*
X36743237Y10459600D01*
X36743176Y10459591D01*
X36745594Y10468985D01*
X36753751Y10494753D01*
X36766464Y10533270D01*
X36782547Y10580906D01*
X36787645Y10595829D01*
X36855490Y10778016D01*
X36936300Y10967960D01*
X37027489Y11160629D01*
X37126473Y11350988D01*
X37230666Y11534005D01*
X37337482Y11704644D01*
X37415654Y11818538D01*
X37457555Y11873097D01*
X37507955Y11932602D01*
X37563144Y11993201D01*
X37619411Y12051042D01*
X37673048Y12102271D01*
X37720344Y12143036D01*
X37747482Y12163142D01*
X37779890Y12184038D01*
X37805619Y12199253D01*
X37819543Y12205775D01*
X37820084Y12205833D01*
X37827365Y12197087D01*
X37843060Y12172936D01*
X37865366Y12136516D01*
X37892482Y12090963D01*
X37922605Y12039412D01*
X37953936Y11984997D01*
X37984671Y11930854D01*
X38013010Y11880119D01*
X38037151Y11835925D01*
X38055292Y11801409D01*
X38065633Y11779705D01*
X38066892Y11776326D01*
X38068070Y11743601D01*
X38220668Y11743601D01*
X38219988Y11775648D01*
X38216458Y11893625D01*
X37945547Y12370427D01*
X37731945Y12370427D01*
X37724268Y12360743D01*
X37701900Y12345911D01*
X37669622Y12329084D01*
X37668445Y12328532D01*
X37639010Y12312916D01*
X37608760Y12292439D01*
X37574535Y12264483D01*
X37533174Y12226429D01*
X37481517Y12175661D01*
X37470333Y12164418D01*
X37373522Y12059980D01*
X37280408Y11945114D01*
X37189519Y11817651D01*
X37099385Y11675420D01*
X37008533Y11516252D01*
X36932196Y11371042D01*
X36846841Y11198096D01*
X36773563Y11038123D01*
X36711026Y10887723D01*
X36657896Y10743493D01*
X36612835Y10602033D01*
X36574727Y10460825D01*
X36560911Y10405819D01*
X36548396Y10357743D01*
X36538239Y10320534D01*
X36531501Y10298130D01*
X36529827Y10293852D01*
X36519898Y10283871D01*
X36495885Y10262841D01*
X36460291Y10232862D01*
X36415621Y10196032D01*
X36364378Y10154449D01*
X36343208Y10137442D01*
X36279084Y10086642D01*
X36229260Y10048570D01*
X36192061Y10022072D01*
X36165809Y10005996D01*
X36148827Y9999188D01*
X36142125Y9999140D01*
X36121160Y10004804D01*
X36087411Y10013806D01*
X36052167Y10023145D01*
X36029674Y10028351D01*
X36004251Y10032475D01*
X35973291Y10035631D01*
X35934187Y10037933D01*
X35884333Y10039494D01*
X35821123Y10040427D01*
X35741948Y10040845D01*
X35644708Y10040863D01*
X35549817Y10040652D01*
X35473343Y10040198D01*
X35412535Y10039346D01*
X35364643Y10037943D01*
X35326919Y10035835D01*
X35296610Y10032866D01*
X35270969Y10028884D01*
X35247244Y10023733D01*
X35222685Y10017260D01*
X35222429Y10017189D01*
X35180309Y10006919D01*
X35147408Y10001642D01*
X35128701Y10002104D01*
X35127179Y10002890D01*
X35089706Y10032006D01*
X35045165Y10067228D01*
X34996370Y10106260D01*
X34946141Y10146803D01*
X34897292Y10186562D01*
X34852642Y10223241D01*
X34815007Y10254541D01*
X34787204Y10278168D01*
X34772050Y10291823D01*
X34770173Y10293957D01*
X34765389Y10308084D01*
X34756694Y10338853D01*
X34745147Y10382329D01*
X34731806Y10434579D01*
X34725273Y10460825D01*
X34723569Y10467136D01*
X34548014Y10467136D01*
X34546683Y10467298D01*
X34536249Y10475595D01*
X34510756Y10495941D01*
X34471673Y10527163D01*
X34420468Y10568085D01*
X34358609Y10617535D01*
X34287567Y10674338D01*
X34208809Y10737320D01*
X34123804Y10805306D01*
X34034021Y10877124D01*
X34030750Y10879741D01*
X33917130Y10970779D01*
X33818788Y11049978D01*
X33734346Y11118560D01*
X33662431Y11177754D01*
X33601667Y11228784D01*
X33550678Y11272876D01*
X33508090Y11311255D01*
X33472526Y11345147D01*
X33442611Y11375779D01*
X33416971Y11404374D01*
X33394230Y11432160D01*
X33373012Y11460362D01*
X33362134Y11475583D01*
X33323095Y11535480D01*
X33289018Y11596373D01*
X33261461Y11654634D01*
X33241978Y11706638D01*
X33232126Y11748758D01*
X33233108Y11776326D01*
X33240917Y11793841D01*
X33257036Y11825054D01*
X33279664Y11866831D01*
X33307000Y11916035D01*
X33337240Y11969533D01*
X33368585Y12024189D01*
X33399233Y12076867D01*
X33427381Y12124433D01*
X33451229Y12163751D01*
X33468974Y12191687D01*
X33478816Y12205105D01*
X33479917Y12205833D01*
X33492397Y12200334D01*
X33517187Y12185843D01*
X33549164Y12165375D01*
X33552519Y12163142D01*
X33593234Y12131903D01*
X33642865Y12087526D01*
X33697700Y12033865D01*
X33754031Y11974772D01*
X33808148Y11914098D01*
X33856342Y11855697D01*
X33884347Y11818538D01*
X33991904Y11659418D01*
X34098650Y11484232D01*
X34202004Y11298007D01*
X34299386Y11105770D01*
X34388213Y10912547D01*
X34465906Y10723366D01*
X34512798Y10594536D01*
X34528825Y10545849D01*
X34540612Y10506226D01*
X34547296Y10478908D01*
X34548014Y10467136D01*
X34723569Y10467136D01*
X34686910Y10602902D01*
X34641804Y10744368D01*
X34588619Y10888626D01*
X34526021Y11039075D01*
X34452673Y11199117D01*
X34367804Y11371042D01*
X34275258Y11545774D01*
X34184641Y11701784D01*
X34094480Y11841241D01*
X34003304Y11966315D01*
X33909643Y12079176D01*
X33829667Y12164418D01*
X33775708Y12217885D01*
X33732643Y12258142D01*
X33697310Y12287806D01*
X33666551Y12309497D01*
X33637205Y12325831D01*
X33631556Y12328532D01*
X33599032Y12345371D01*
X33576262Y12360320D01*
X33568025Y12370223D01*
X33568056Y12370427D01*
X33573637Y12381834D01*
X33588548Y12409564D01*
X33611639Y12451547D01*
X33641757Y12505715D01*
X33677754Y12570001D01*
X33718477Y12642337D01*
X33762777Y12720654D01*
X33771226Y12735552D01*
X33823169Y12827813D01*
X33871220Y12914850D01*
X33916964Y12999770D01*
X33961990Y13085683D01*
X34007885Y13175696D01*
X34056234Y13272917D01*
X34108625Y13380455D01*
X34166645Y13501417D01*
X34224832Y13624000D01*
X34273709Y13727444D01*
X34321320Y13828381D01*
X34366621Y13924588D01*
X34408571Y14013846D01*
X34446128Y14093933D01*
X34478250Y14162628D01*
X34503893Y14217710D01*
X34522017Y14256959D01*
X34527767Y14269583D01*
X34552969Y14324500D01*
X34580078Y14382134D01*
X34605093Y14434037D01*
X34617678Y14459399D01*
X34657408Y14538090D01*
X34676968Y14512316D01*
X34688303Y14494414D01*
X34707123Y14461416D01*
X34731345Y14417108D01*
X34758890Y14365276D01*
X34778391Y14327792D01*
X34806240Y14274351D01*
X34831396Y14227132D01*
X34852006Y14189529D01*
X34866221Y14164934D01*
X34871481Y14157159D01*
X34878917Y14145631D01*
X34895523Y14117607D01*
X34920160Y14075078D01*
X34951691Y14020034D01*
X34988977Y13954467D01*
X35030881Y13880367D01*
X35076263Y13799725D01*
X35099667Y13757996D01*
X35316625Y13370715D01*
X35376963Y13370358D01*
X35423737Y13373156D01*
X35474833Y13380674D01*
X35498249Y13385875D01*
X35558806Y13396402D01*
X35630677Y13400942D01*
X35704872Y13399497D01*
X35772402Y13392066D01*
X35801751Y13385875D01*
X35848766Y13376674D01*
X35899788Y13371127D01*
X35923037Y13370358D01*
X35983375Y13370715D01*
X36200333Y13757996D01*
X36247017Y13841139D01*
X36290786Y13918727D01*
X36330500Y13988767D01*
X36365022Y14049269D01*
X36393214Y14098243D01*
X36413938Y14133696D01*
X36426056Y14153639D01*
X36428519Y14157159D01*
X36436927Y14170176D01*
X36453075Y14198667D01*
X36475114Y14239238D01*
X36501190Y14288497D01*
X36521610Y14327792D01*
X36550223Y14382571D01*
X36576925Y14432392D01*
X36599633Y14473469D01*
X36616268Y14502015D01*
X36623032Y14512316D01*
X36642592Y14538090D01*
X36682322Y14459399D01*
X36704072Y14415194D01*
X36730372Y14360074D01*
X36757218Y14302489D01*
X36772233Y14269583D01*
X36786353Y14238775D01*
X36808496Y14191061D01*
X36837620Y14128661D01*
X36872682Y14053797D01*
X36912641Y13968690D01*
X36956455Y13875561D01*
X37003081Y13776631D01*
X37051476Y13674120D01*
X37075169Y13624000D01*
X37139593Y13488339D01*
X37196965Y13368892D01*
X37248870Y13262553D01*
X37296895Y13166211D01*
X37342628Y13076760D01*
X37387655Y12991092D01*
X37433563Y12906097D01*
X37481938Y12818669D01*
X37528774Y12735552D01*
X37573606Y12656359D01*
X37615074Y12582768D01*
X37652027Y12516846D01*
X37683313Y12460660D01*
X37707783Y12416280D01*
X37724286Y12385773D01*
X37731670Y12371206D01*
X37731945Y12370427D01*
X37945547Y12370427D01*
X37846641Y12544500D01*
X37783339Y12655944D01*
X37726840Y12755607D01*
X37676170Y12845396D01*
X37630358Y12927214D01*
X37588430Y13002969D01*
X37549412Y13074565D01*
X37512332Y13143908D01*
X37476217Y13212903D01*
X37440093Y13283456D01*
X37402988Y13357472D01*
X37363928Y13436856D01*
X37321941Y13523514D01*
X37276053Y13619352D01*
X37225291Y13726275D01*
X37168682Y13846188D01*
X37105253Y13980996D01*
X37034031Y14132606D01*
X37015861Y14171298D01*
X36971728Y14264775D01*
X36929328Y14353625D01*
X36889697Y14435747D01*
X36853868Y14509040D01*
X36822877Y14571402D01*
X36797757Y14620732D01*
X36779543Y14654929D01*
X36769671Y14671361D01*
X36738252Y14714083D01*
X36552047Y14714083D01*
X36515636Y14673781D01*
%TD*%
D14*
%TO.C,J4*%
X32740000Y35700000D03*
X35280000Y35700000D03*
X37820000Y35700000D03*
X40360000Y35700000D03*
D15*
X42900000Y35700000D03*
%TD*%
D16*
%TO.C,H4*%
X76800000Y11500000D03*
%TD*%
%TO.C,H3*%
X76750000Y37200000D03*
%TD*%
%TO.C,H2*%
X4000000Y33700000D03*
%TD*%
%TO.C,H1*%
X4000000Y15000000D03*
%TD*%
D17*
%TO.C,J1*%
X5350000Y28670000D03*
X5350000Y20030000D03*
D18*
X1200000Y28670000D03*
X1200000Y20030000D03*
D19*
X4850000Y21460000D03*
X4850000Y27240000D03*
%TD*%
D20*
%TO.C,SW3*%
X74320000Y3870000D03*
D21*
X66700000Y3870000D03*
%TD*%
D20*
%TO.C,SW2*%
X74320000Y44830000D03*
D21*
X66700000Y44830000D03*
%TD*%
D20*
%TO.C,SW1*%
X27850000Y44830000D03*
X20230000Y37210000D03*
X27850000Y42290000D03*
X20230000Y39750000D03*
X27850000Y39750000D03*
X20230000Y42290000D03*
X27850000Y37210000D03*
D21*
X20230000Y44830000D03*
%TD*%
D22*
%TO.C,J3*%
X69215000Y12920000D03*
X69215000Y15460000D03*
X69215000Y18000000D03*
X69215000Y20540000D03*
X69215000Y23080000D03*
X69215000Y25620000D03*
X69215000Y28160000D03*
X69215000Y30700000D03*
X69215000Y33240000D03*
X69215000Y35780000D03*
X66675000Y12920000D03*
X66675000Y15460000D03*
X66675000Y18000000D03*
X66675000Y20540000D03*
X66675000Y23080000D03*
X66675000Y25620000D03*
X66675000Y28160000D03*
X66675000Y30700000D03*
X66675000Y33240000D03*
G36*
G01*
X65825000Y35180000D02*
X65825000Y36380000D01*
G75*
G02*
X66075000Y36630000I250000J0D01*
G01*
X67275000Y36630000D01*
G75*
G02*
X67525000Y36380000I0J-250000D01*
G01*
X67525000Y35180000D01*
G75*
G02*
X67275000Y34930000I-250000J0D01*
G01*
X66075000Y34930000D01*
G75*
G02*
X65825000Y35180000I0J250000D01*
G01*
G37*
%TD*%
%TO.C,J2*%
X10540000Y4360000D03*
X13080000Y4360000D03*
X15620000Y4360000D03*
X18160000Y4360000D03*
X20700000Y4360000D03*
X10540000Y6900000D03*
X13080000Y6900000D03*
X15620000Y6900000D03*
X18160000Y6900000D03*
G36*
G01*
X20100000Y7750000D02*
X21300000Y7750000D01*
G75*
G02*
X21550000Y7500000I0J-250000D01*
G01*
X21550000Y6300000D01*
G75*
G02*
X21300000Y6050000I-250000J0D01*
G01*
X20100000Y6050000D01*
G75*
G02*
X19850000Y6300000I0J250000D01*
G01*
X19850000Y7500000D01*
G75*
G02*
X20100000Y7750000I250000J0D01*
G01*
G37*
%TD*%
D23*
%TO.C,D10*%
X61400000Y43560000D03*
D24*
X61400000Y46100000D03*
%TD*%
D23*
%TO.C,D9*%
X61400000Y5140000D03*
D24*
X61400000Y2600000D03*
%TD*%
D23*
%TO.C,D8*%
X35400000Y43560000D03*
D24*
X35400000Y46100000D03*
%TD*%
D23*
%TO.C,D7*%
X41900000Y43560000D03*
D24*
X41900000Y46100000D03*
%TD*%
D23*
%TO.C,D6*%
X48400000Y43560000D03*
D24*
X48400000Y46100000D03*
%TD*%
D23*
%TO.C,D5*%
X54900000Y43560000D03*
D24*
X54900000Y46100000D03*
%TD*%
D23*
%TO.C,D4*%
X35400000Y5140000D03*
D24*
X35400000Y2600000D03*
%TD*%
D23*
%TO.C,D3*%
X41900000Y5140000D03*
D24*
X41900000Y2600000D03*
%TD*%
D23*
%TO.C,D2*%
X48400000Y5140000D03*
D24*
X48400000Y2600000D03*
%TD*%
D23*
%TO.C,D1*%
X54900000Y5140000D03*
D24*
X54900000Y2600000D03*
%TD*%
M02*
