%TF.GenerationSoftware,KiCad,Pcbnew,5.1.8-db9833491~88~ubuntu20.04.1*%
%TF.CreationDate,2020-12-06T11:49:28+01:00*%
%TF.ProjectId,QuadUart,51756164-5561-4727-942e-6b696361645f,rev?*%
%TF.SameCoordinates,PX8f0d180PY5e20ae0*%
%TF.FileFunction,Soldermask,Top*%
%TF.FilePolarity,Negative*%
%FSLAX46Y46*%
G04 Gerber Fmt 4.6, Leading zero omitted, Abs format (unit mm)*
G04 Created by KiCad (PCBNEW 5.1.8-db9833491~88~ubuntu20.04.1) date 2020-12-06 11:49:28*
%MOMM*%
%LPD*%
G01*
G04 APERTURE LIST*
%ADD10C,1.000000*%
%ADD11R,1.900000X0.400000*%
%ADD12O,1.700000X1.700000*%
%ADD13R,1.700000X1.700000*%
%ADD14C,3.200000*%
%ADD15O,2.100000X1.000000*%
%ADD16O,1.800000X1.000000*%
%ADD17C,0.650000*%
%ADD18R,1.500000X0.600000*%
%ADD19R,1.500000X0.300000*%
%ADD20R,0.650000X1.060000*%
%ADD21R,1.060000X0.650000*%
%ADD22O,1.600000X1.600000*%
%ADD23R,1.600000X1.600000*%
%ADD24R,0.800000X0.500000*%
%ADD25R,0.800000X0.400000*%
%ADD26R,1.400000X3.800000*%
%ADD27C,1.700000*%
%ADD28C,1.800000*%
%ADD29R,1.800000X1.800000*%
%ADD30R,0.900000X0.800000*%
G04 APERTURE END LIST*
D10*
X79800000Y3500000D02*
X79800000Y45200000D01*
X76800000Y48200000D02*
X3500000Y48200000D01*
X79800000Y3500000D02*
G75*
G03*
X76800000Y500000I500000J-3500000D01*
G01*
X76800000Y48200000D02*
G75*
G03*
X79800000Y45200000I3500000J500000D01*
G01*
X500000Y45200000D02*
G75*
G03*
X3500000Y48200000I-500000J3500000D01*
G01*
X3500000Y500000D02*
G75*
G03*
X500000Y3500000I-3500000J-500000D01*
G01*
X500000Y3500000D02*
X500000Y45200000D01*
X76800000Y500000D02*
X3500000Y500000D01*
%TO.C,C8*%
G36*
G01*
X61075000Y30937500D02*
X61075000Y30462500D01*
G75*
G02*
X60837500Y30225000I-237500J0D01*
G01*
X60237500Y30225000D01*
G75*
G02*
X60000000Y30462500I0J237500D01*
G01*
X60000000Y30937500D01*
G75*
G02*
X60237500Y31175000I237500J0D01*
G01*
X60837500Y31175000D01*
G75*
G02*
X61075000Y30937500I0J-237500D01*
G01*
G37*
G36*
G01*
X62800000Y30937500D02*
X62800000Y30462500D01*
G75*
G02*
X62562500Y30225000I-237500J0D01*
G01*
X61962500Y30225000D01*
G75*
G02*
X61725000Y30462500I0J237500D01*
G01*
X61725000Y30937500D01*
G75*
G02*
X61962500Y31175000I237500J0D01*
G01*
X62562500Y31175000D01*
G75*
G02*
X62800000Y30937500I0J-237500D01*
G01*
G37*
%TD*%
%TO.C,C7*%
G36*
G01*
X61075000Y20777500D02*
X61075000Y20302500D01*
G75*
G02*
X60837500Y20065000I-237500J0D01*
G01*
X60237500Y20065000D01*
G75*
G02*
X60000000Y20302500I0J237500D01*
G01*
X60000000Y20777500D01*
G75*
G02*
X60237500Y21015000I237500J0D01*
G01*
X60837500Y21015000D01*
G75*
G02*
X61075000Y20777500I0J-237500D01*
G01*
G37*
G36*
G01*
X62800000Y20777500D02*
X62800000Y20302500D01*
G75*
G02*
X62562500Y20065000I-237500J0D01*
G01*
X61962500Y20065000D01*
G75*
G02*
X61725000Y20302500I0J237500D01*
G01*
X61725000Y20777500D01*
G75*
G02*
X61962500Y21015000I237500J0D01*
G01*
X62562500Y21015000D01*
G75*
G02*
X62800000Y20777500I0J-237500D01*
G01*
G37*
%TD*%
%TO.C,R32*%
G36*
G01*
X16912500Y14787500D02*
X16912500Y14312500D01*
G75*
G02*
X16675000Y14075000I-237500J0D01*
G01*
X16175000Y14075000D01*
G75*
G02*
X15937500Y14312500I0J237500D01*
G01*
X15937500Y14787500D01*
G75*
G02*
X16175000Y15025000I237500J0D01*
G01*
X16675000Y15025000D01*
G75*
G02*
X16912500Y14787500I0J-237500D01*
G01*
G37*
G36*
G01*
X18737500Y14787500D02*
X18737500Y14312500D01*
G75*
G02*
X18500000Y14075000I-237500J0D01*
G01*
X18000000Y14075000D01*
G75*
G02*
X17762500Y14312500I0J237500D01*
G01*
X17762500Y14787500D01*
G75*
G02*
X18000000Y15025000I237500J0D01*
G01*
X18500000Y15025000D01*
G75*
G02*
X18737500Y14787500I0J-237500D01*
G01*
G37*
%TD*%
%TO.C,D11*%
G36*
G01*
X20375000Y14787500D02*
X20375000Y14312500D01*
G75*
G02*
X20137500Y14075000I-237500J0D01*
G01*
X19562500Y14075000D01*
G75*
G02*
X19325000Y14312500I0J237500D01*
G01*
X19325000Y14787500D01*
G75*
G02*
X19562500Y15025000I237500J0D01*
G01*
X20137500Y15025000D01*
G75*
G02*
X20375000Y14787500I0J-237500D01*
G01*
G37*
G36*
G01*
X22125000Y14787500D02*
X22125000Y14312500D01*
G75*
G02*
X21887500Y14075000I-237500J0D01*
G01*
X21312500Y14075000D01*
G75*
G02*
X21075000Y14312500I0J237500D01*
G01*
X21075000Y14787500D01*
G75*
G02*
X21312500Y15025000I237500J0D01*
G01*
X21887500Y15025000D01*
G75*
G02*
X22125000Y14787500I0J-237500D01*
G01*
G37*
%TD*%
D11*
%TO.C,Y1*%
X16500000Y19850000D03*
X16500000Y21050000D03*
X16500000Y22250000D03*
%TD*%
%TO.C,R31*%
G36*
G01*
X19437500Y21312500D02*
X18962500Y21312500D01*
G75*
G02*
X18725000Y21550000I0J237500D01*
G01*
X18725000Y22050000D01*
G75*
G02*
X18962500Y22287500I237500J0D01*
G01*
X19437500Y22287500D01*
G75*
G02*
X19675000Y22050000I0J-237500D01*
G01*
X19675000Y21550000D01*
G75*
G02*
X19437500Y21312500I-237500J0D01*
G01*
G37*
G36*
G01*
X19437500Y19487500D02*
X18962500Y19487500D01*
G75*
G02*
X18725000Y19725000I0J237500D01*
G01*
X18725000Y20225000D01*
G75*
G02*
X18962500Y20462500I237500J0D01*
G01*
X19437500Y20462500D01*
G75*
G02*
X19675000Y20225000I0J-237500D01*
G01*
X19675000Y19725000D01*
G75*
G02*
X19437500Y19487500I-237500J0D01*
G01*
G37*
%TD*%
D12*
%TO.C,J4*%
X32740000Y35700000D03*
X35280000Y35700000D03*
X37820000Y35700000D03*
X40360000Y35700000D03*
D13*
X42900000Y35700000D03*
%TD*%
%TO.C,U10*%
G36*
G01*
X48450000Y20780000D02*
X48250000Y20780000D01*
G75*
G02*
X48150000Y20880000I0J100000D01*
G01*
X48150000Y22155000D01*
G75*
G02*
X48250000Y22255000I100000J0D01*
G01*
X48450000Y22255000D01*
G75*
G02*
X48550000Y22155000I0J-100000D01*
G01*
X48550000Y20880000D01*
G75*
G02*
X48450000Y20780000I-100000J0D01*
G01*
G37*
G36*
G01*
X49100000Y20780000D02*
X48900000Y20780000D01*
G75*
G02*
X48800000Y20880000I0J100000D01*
G01*
X48800000Y22155000D01*
G75*
G02*
X48900000Y22255000I100000J0D01*
G01*
X49100000Y22255000D01*
G75*
G02*
X49200000Y22155000I0J-100000D01*
G01*
X49200000Y20880000D01*
G75*
G02*
X49100000Y20780000I-100000J0D01*
G01*
G37*
G36*
G01*
X49750000Y20780000D02*
X49550000Y20780000D01*
G75*
G02*
X49450000Y20880000I0J100000D01*
G01*
X49450000Y22155000D01*
G75*
G02*
X49550000Y22255000I100000J0D01*
G01*
X49750000Y22255000D01*
G75*
G02*
X49850000Y22155000I0J-100000D01*
G01*
X49850000Y20880000D01*
G75*
G02*
X49750000Y20780000I-100000J0D01*
G01*
G37*
G36*
G01*
X50400000Y20780000D02*
X50200000Y20780000D01*
G75*
G02*
X50100000Y20880000I0J100000D01*
G01*
X50100000Y22155000D01*
G75*
G02*
X50200000Y22255000I100000J0D01*
G01*
X50400000Y22255000D01*
G75*
G02*
X50500000Y22155000I0J-100000D01*
G01*
X50500000Y20880000D01*
G75*
G02*
X50400000Y20780000I-100000J0D01*
G01*
G37*
G36*
G01*
X51050000Y20780000D02*
X50850000Y20780000D01*
G75*
G02*
X50750000Y20880000I0J100000D01*
G01*
X50750000Y22155000D01*
G75*
G02*
X50850000Y22255000I100000J0D01*
G01*
X51050000Y22255000D01*
G75*
G02*
X51150000Y22155000I0J-100000D01*
G01*
X51150000Y20880000D01*
G75*
G02*
X51050000Y20780000I-100000J0D01*
G01*
G37*
G36*
G01*
X51700000Y20780000D02*
X51500000Y20780000D01*
G75*
G02*
X51400000Y20880000I0J100000D01*
G01*
X51400000Y22155000D01*
G75*
G02*
X51500000Y22255000I100000J0D01*
G01*
X51700000Y22255000D01*
G75*
G02*
X51800000Y22155000I0J-100000D01*
G01*
X51800000Y20880000D01*
G75*
G02*
X51700000Y20780000I-100000J0D01*
G01*
G37*
G36*
G01*
X52350000Y20780000D02*
X52150000Y20780000D01*
G75*
G02*
X52050000Y20880000I0J100000D01*
G01*
X52050000Y22155000D01*
G75*
G02*
X52150000Y22255000I100000J0D01*
G01*
X52350000Y22255000D01*
G75*
G02*
X52450000Y22155000I0J-100000D01*
G01*
X52450000Y20880000D01*
G75*
G02*
X52350000Y20780000I-100000J0D01*
G01*
G37*
G36*
G01*
X52350000Y26505000D02*
X52150000Y26505000D01*
G75*
G02*
X52050000Y26605000I0J100000D01*
G01*
X52050000Y27880000D01*
G75*
G02*
X52150000Y27980000I100000J0D01*
G01*
X52350000Y27980000D01*
G75*
G02*
X52450000Y27880000I0J-100000D01*
G01*
X52450000Y26605000D01*
G75*
G02*
X52350000Y26505000I-100000J0D01*
G01*
G37*
G36*
G01*
X51700000Y26505000D02*
X51500000Y26505000D01*
G75*
G02*
X51400000Y26605000I0J100000D01*
G01*
X51400000Y27880000D01*
G75*
G02*
X51500000Y27980000I100000J0D01*
G01*
X51700000Y27980000D01*
G75*
G02*
X51800000Y27880000I0J-100000D01*
G01*
X51800000Y26605000D01*
G75*
G02*
X51700000Y26505000I-100000J0D01*
G01*
G37*
G36*
G01*
X51050000Y26505000D02*
X50850000Y26505000D01*
G75*
G02*
X50750000Y26605000I0J100000D01*
G01*
X50750000Y27880000D01*
G75*
G02*
X50850000Y27980000I100000J0D01*
G01*
X51050000Y27980000D01*
G75*
G02*
X51150000Y27880000I0J-100000D01*
G01*
X51150000Y26605000D01*
G75*
G02*
X51050000Y26505000I-100000J0D01*
G01*
G37*
G36*
G01*
X50400000Y26505000D02*
X50200000Y26505000D01*
G75*
G02*
X50100000Y26605000I0J100000D01*
G01*
X50100000Y27880000D01*
G75*
G02*
X50200000Y27980000I100000J0D01*
G01*
X50400000Y27980000D01*
G75*
G02*
X50500000Y27880000I0J-100000D01*
G01*
X50500000Y26605000D01*
G75*
G02*
X50400000Y26505000I-100000J0D01*
G01*
G37*
G36*
G01*
X49750000Y26505000D02*
X49550000Y26505000D01*
G75*
G02*
X49450000Y26605000I0J100000D01*
G01*
X49450000Y27880000D01*
G75*
G02*
X49550000Y27980000I100000J0D01*
G01*
X49750000Y27980000D01*
G75*
G02*
X49850000Y27880000I0J-100000D01*
G01*
X49850000Y26605000D01*
G75*
G02*
X49750000Y26505000I-100000J0D01*
G01*
G37*
G36*
G01*
X49100000Y26505000D02*
X48900000Y26505000D01*
G75*
G02*
X48800000Y26605000I0J100000D01*
G01*
X48800000Y27880000D01*
G75*
G02*
X48900000Y27980000I100000J0D01*
G01*
X49100000Y27980000D01*
G75*
G02*
X49200000Y27880000I0J-100000D01*
G01*
X49200000Y26605000D01*
G75*
G02*
X49100000Y26505000I-100000J0D01*
G01*
G37*
G36*
G01*
X48450000Y26505000D02*
X48250000Y26505000D01*
G75*
G02*
X48150000Y26605000I0J100000D01*
G01*
X48150000Y27880000D01*
G75*
G02*
X48250000Y27980000I100000J0D01*
G01*
X48450000Y27980000D01*
G75*
G02*
X48550000Y27880000I0J-100000D01*
G01*
X48550000Y26605000D01*
G75*
G02*
X48450000Y26505000I-100000J0D01*
G01*
G37*
%TD*%
%TO.C,U11*%
G36*
G01*
X48450000Y30980000D02*
X48250000Y30980000D01*
G75*
G02*
X48150000Y31080000I0J100000D01*
G01*
X48150000Y32355000D01*
G75*
G02*
X48250000Y32455000I100000J0D01*
G01*
X48450000Y32455000D01*
G75*
G02*
X48550000Y32355000I0J-100000D01*
G01*
X48550000Y31080000D01*
G75*
G02*
X48450000Y30980000I-100000J0D01*
G01*
G37*
G36*
G01*
X49100000Y30980000D02*
X48900000Y30980000D01*
G75*
G02*
X48800000Y31080000I0J100000D01*
G01*
X48800000Y32355000D01*
G75*
G02*
X48900000Y32455000I100000J0D01*
G01*
X49100000Y32455000D01*
G75*
G02*
X49200000Y32355000I0J-100000D01*
G01*
X49200000Y31080000D01*
G75*
G02*
X49100000Y30980000I-100000J0D01*
G01*
G37*
G36*
G01*
X49750000Y30980000D02*
X49550000Y30980000D01*
G75*
G02*
X49450000Y31080000I0J100000D01*
G01*
X49450000Y32355000D01*
G75*
G02*
X49550000Y32455000I100000J0D01*
G01*
X49750000Y32455000D01*
G75*
G02*
X49850000Y32355000I0J-100000D01*
G01*
X49850000Y31080000D01*
G75*
G02*
X49750000Y30980000I-100000J0D01*
G01*
G37*
G36*
G01*
X50400000Y30980000D02*
X50200000Y30980000D01*
G75*
G02*
X50100000Y31080000I0J100000D01*
G01*
X50100000Y32355000D01*
G75*
G02*
X50200000Y32455000I100000J0D01*
G01*
X50400000Y32455000D01*
G75*
G02*
X50500000Y32355000I0J-100000D01*
G01*
X50500000Y31080000D01*
G75*
G02*
X50400000Y30980000I-100000J0D01*
G01*
G37*
G36*
G01*
X51050000Y30980000D02*
X50850000Y30980000D01*
G75*
G02*
X50750000Y31080000I0J100000D01*
G01*
X50750000Y32355000D01*
G75*
G02*
X50850000Y32455000I100000J0D01*
G01*
X51050000Y32455000D01*
G75*
G02*
X51150000Y32355000I0J-100000D01*
G01*
X51150000Y31080000D01*
G75*
G02*
X51050000Y30980000I-100000J0D01*
G01*
G37*
G36*
G01*
X51700000Y30980000D02*
X51500000Y30980000D01*
G75*
G02*
X51400000Y31080000I0J100000D01*
G01*
X51400000Y32355000D01*
G75*
G02*
X51500000Y32455000I100000J0D01*
G01*
X51700000Y32455000D01*
G75*
G02*
X51800000Y32355000I0J-100000D01*
G01*
X51800000Y31080000D01*
G75*
G02*
X51700000Y30980000I-100000J0D01*
G01*
G37*
G36*
G01*
X52350000Y30980000D02*
X52150000Y30980000D01*
G75*
G02*
X52050000Y31080000I0J100000D01*
G01*
X52050000Y32355000D01*
G75*
G02*
X52150000Y32455000I100000J0D01*
G01*
X52350000Y32455000D01*
G75*
G02*
X52450000Y32355000I0J-100000D01*
G01*
X52450000Y31080000D01*
G75*
G02*
X52350000Y30980000I-100000J0D01*
G01*
G37*
G36*
G01*
X52350000Y36705000D02*
X52150000Y36705000D01*
G75*
G02*
X52050000Y36805000I0J100000D01*
G01*
X52050000Y38080000D01*
G75*
G02*
X52150000Y38180000I100000J0D01*
G01*
X52350000Y38180000D01*
G75*
G02*
X52450000Y38080000I0J-100000D01*
G01*
X52450000Y36805000D01*
G75*
G02*
X52350000Y36705000I-100000J0D01*
G01*
G37*
G36*
G01*
X51700000Y36705000D02*
X51500000Y36705000D01*
G75*
G02*
X51400000Y36805000I0J100000D01*
G01*
X51400000Y38080000D01*
G75*
G02*
X51500000Y38180000I100000J0D01*
G01*
X51700000Y38180000D01*
G75*
G02*
X51800000Y38080000I0J-100000D01*
G01*
X51800000Y36805000D01*
G75*
G02*
X51700000Y36705000I-100000J0D01*
G01*
G37*
G36*
G01*
X51050000Y36705000D02*
X50850000Y36705000D01*
G75*
G02*
X50750000Y36805000I0J100000D01*
G01*
X50750000Y38080000D01*
G75*
G02*
X50850000Y38180000I100000J0D01*
G01*
X51050000Y38180000D01*
G75*
G02*
X51150000Y38080000I0J-100000D01*
G01*
X51150000Y36805000D01*
G75*
G02*
X51050000Y36705000I-100000J0D01*
G01*
G37*
G36*
G01*
X50400000Y36705000D02*
X50200000Y36705000D01*
G75*
G02*
X50100000Y36805000I0J100000D01*
G01*
X50100000Y38080000D01*
G75*
G02*
X50200000Y38180000I100000J0D01*
G01*
X50400000Y38180000D01*
G75*
G02*
X50500000Y38080000I0J-100000D01*
G01*
X50500000Y36805000D01*
G75*
G02*
X50400000Y36705000I-100000J0D01*
G01*
G37*
G36*
G01*
X49750000Y36705000D02*
X49550000Y36705000D01*
G75*
G02*
X49450000Y36805000I0J100000D01*
G01*
X49450000Y38080000D01*
G75*
G02*
X49550000Y38180000I100000J0D01*
G01*
X49750000Y38180000D01*
G75*
G02*
X49850000Y38080000I0J-100000D01*
G01*
X49850000Y36805000D01*
G75*
G02*
X49750000Y36705000I-100000J0D01*
G01*
G37*
G36*
G01*
X49100000Y36705000D02*
X48900000Y36705000D01*
G75*
G02*
X48800000Y36805000I0J100000D01*
G01*
X48800000Y38080000D01*
G75*
G02*
X48900000Y38180000I100000J0D01*
G01*
X49100000Y38180000D01*
G75*
G02*
X49200000Y38080000I0J-100000D01*
G01*
X49200000Y36805000D01*
G75*
G02*
X49100000Y36705000I-100000J0D01*
G01*
G37*
G36*
G01*
X48450000Y36705000D02*
X48250000Y36705000D01*
G75*
G02*
X48150000Y36805000I0J100000D01*
G01*
X48150000Y38080000D01*
G75*
G02*
X48250000Y38180000I100000J0D01*
G01*
X48450000Y38180000D01*
G75*
G02*
X48550000Y38080000I0J-100000D01*
G01*
X48550000Y36805000D01*
G75*
G02*
X48450000Y36705000I-100000J0D01*
G01*
G37*
%TD*%
%TO.C,U9*%
G36*
G01*
X48450000Y10500000D02*
X48250000Y10500000D01*
G75*
G02*
X48150000Y10600000I0J100000D01*
G01*
X48150000Y11875000D01*
G75*
G02*
X48250000Y11975000I100000J0D01*
G01*
X48450000Y11975000D01*
G75*
G02*
X48550000Y11875000I0J-100000D01*
G01*
X48550000Y10600000D01*
G75*
G02*
X48450000Y10500000I-100000J0D01*
G01*
G37*
G36*
G01*
X49100000Y10500000D02*
X48900000Y10500000D01*
G75*
G02*
X48800000Y10600000I0J100000D01*
G01*
X48800000Y11875000D01*
G75*
G02*
X48900000Y11975000I100000J0D01*
G01*
X49100000Y11975000D01*
G75*
G02*
X49200000Y11875000I0J-100000D01*
G01*
X49200000Y10600000D01*
G75*
G02*
X49100000Y10500000I-100000J0D01*
G01*
G37*
G36*
G01*
X49750000Y10500000D02*
X49550000Y10500000D01*
G75*
G02*
X49450000Y10600000I0J100000D01*
G01*
X49450000Y11875000D01*
G75*
G02*
X49550000Y11975000I100000J0D01*
G01*
X49750000Y11975000D01*
G75*
G02*
X49850000Y11875000I0J-100000D01*
G01*
X49850000Y10600000D01*
G75*
G02*
X49750000Y10500000I-100000J0D01*
G01*
G37*
G36*
G01*
X50400000Y10500000D02*
X50200000Y10500000D01*
G75*
G02*
X50100000Y10600000I0J100000D01*
G01*
X50100000Y11875000D01*
G75*
G02*
X50200000Y11975000I100000J0D01*
G01*
X50400000Y11975000D01*
G75*
G02*
X50500000Y11875000I0J-100000D01*
G01*
X50500000Y10600000D01*
G75*
G02*
X50400000Y10500000I-100000J0D01*
G01*
G37*
G36*
G01*
X51050000Y10500000D02*
X50850000Y10500000D01*
G75*
G02*
X50750000Y10600000I0J100000D01*
G01*
X50750000Y11875000D01*
G75*
G02*
X50850000Y11975000I100000J0D01*
G01*
X51050000Y11975000D01*
G75*
G02*
X51150000Y11875000I0J-100000D01*
G01*
X51150000Y10600000D01*
G75*
G02*
X51050000Y10500000I-100000J0D01*
G01*
G37*
G36*
G01*
X51700000Y10500000D02*
X51500000Y10500000D01*
G75*
G02*
X51400000Y10600000I0J100000D01*
G01*
X51400000Y11875000D01*
G75*
G02*
X51500000Y11975000I100000J0D01*
G01*
X51700000Y11975000D01*
G75*
G02*
X51800000Y11875000I0J-100000D01*
G01*
X51800000Y10600000D01*
G75*
G02*
X51700000Y10500000I-100000J0D01*
G01*
G37*
G36*
G01*
X52350000Y10500000D02*
X52150000Y10500000D01*
G75*
G02*
X52050000Y10600000I0J100000D01*
G01*
X52050000Y11875000D01*
G75*
G02*
X52150000Y11975000I100000J0D01*
G01*
X52350000Y11975000D01*
G75*
G02*
X52450000Y11875000I0J-100000D01*
G01*
X52450000Y10600000D01*
G75*
G02*
X52350000Y10500000I-100000J0D01*
G01*
G37*
G36*
G01*
X52350000Y16225000D02*
X52150000Y16225000D01*
G75*
G02*
X52050000Y16325000I0J100000D01*
G01*
X52050000Y17600000D01*
G75*
G02*
X52150000Y17700000I100000J0D01*
G01*
X52350000Y17700000D01*
G75*
G02*
X52450000Y17600000I0J-100000D01*
G01*
X52450000Y16325000D01*
G75*
G02*
X52350000Y16225000I-100000J0D01*
G01*
G37*
G36*
G01*
X51700000Y16225000D02*
X51500000Y16225000D01*
G75*
G02*
X51400000Y16325000I0J100000D01*
G01*
X51400000Y17600000D01*
G75*
G02*
X51500000Y17700000I100000J0D01*
G01*
X51700000Y17700000D01*
G75*
G02*
X51800000Y17600000I0J-100000D01*
G01*
X51800000Y16325000D01*
G75*
G02*
X51700000Y16225000I-100000J0D01*
G01*
G37*
G36*
G01*
X51050000Y16225000D02*
X50850000Y16225000D01*
G75*
G02*
X50750000Y16325000I0J100000D01*
G01*
X50750000Y17600000D01*
G75*
G02*
X50850000Y17700000I100000J0D01*
G01*
X51050000Y17700000D01*
G75*
G02*
X51150000Y17600000I0J-100000D01*
G01*
X51150000Y16325000D01*
G75*
G02*
X51050000Y16225000I-100000J0D01*
G01*
G37*
G36*
G01*
X50400000Y16225000D02*
X50200000Y16225000D01*
G75*
G02*
X50100000Y16325000I0J100000D01*
G01*
X50100000Y17600000D01*
G75*
G02*
X50200000Y17700000I100000J0D01*
G01*
X50400000Y17700000D01*
G75*
G02*
X50500000Y17600000I0J-100000D01*
G01*
X50500000Y16325000D01*
G75*
G02*
X50400000Y16225000I-100000J0D01*
G01*
G37*
G36*
G01*
X49750000Y16225000D02*
X49550000Y16225000D01*
G75*
G02*
X49450000Y16325000I0J100000D01*
G01*
X49450000Y17600000D01*
G75*
G02*
X49550000Y17700000I100000J0D01*
G01*
X49750000Y17700000D01*
G75*
G02*
X49850000Y17600000I0J-100000D01*
G01*
X49850000Y16325000D01*
G75*
G02*
X49750000Y16225000I-100000J0D01*
G01*
G37*
G36*
G01*
X49100000Y16225000D02*
X48900000Y16225000D01*
G75*
G02*
X48800000Y16325000I0J100000D01*
G01*
X48800000Y17600000D01*
G75*
G02*
X48900000Y17700000I100000J0D01*
G01*
X49100000Y17700000D01*
G75*
G02*
X49200000Y17600000I0J-100000D01*
G01*
X49200000Y16325000D01*
G75*
G02*
X49100000Y16225000I-100000J0D01*
G01*
G37*
G36*
G01*
X48450000Y16225000D02*
X48250000Y16225000D01*
G75*
G02*
X48150000Y16325000I0J100000D01*
G01*
X48150000Y17600000D01*
G75*
G02*
X48250000Y17700000I100000J0D01*
G01*
X48450000Y17700000D01*
G75*
G02*
X48550000Y17600000I0J-100000D01*
G01*
X48550000Y16325000D01*
G75*
G02*
X48450000Y16225000I-100000J0D01*
G01*
G37*
%TD*%
%TO.C,C21*%
G36*
G01*
X27812500Y12762500D02*
X28287500Y12762500D01*
G75*
G02*
X28525000Y12525000I0J-237500D01*
G01*
X28525000Y11925000D01*
G75*
G02*
X28287500Y11687500I-237500J0D01*
G01*
X27812500Y11687500D01*
G75*
G02*
X27575000Y11925000I0J237500D01*
G01*
X27575000Y12525000D01*
G75*
G02*
X27812500Y12762500I237500J0D01*
G01*
G37*
G36*
G01*
X27812500Y14487500D02*
X28287500Y14487500D01*
G75*
G02*
X28525000Y14250000I0J-237500D01*
G01*
X28525000Y13650000D01*
G75*
G02*
X28287500Y13412500I-237500J0D01*
G01*
X27812500Y13412500D01*
G75*
G02*
X27575000Y13650000I0J237500D01*
G01*
X27575000Y14250000D01*
G75*
G02*
X27812500Y14487500I237500J0D01*
G01*
G37*
%TD*%
%TO.C,C20*%
G36*
G01*
X30187500Y30987500D02*
X29712500Y30987500D01*
G75*
G02*
X29475000Y31225000I0J237500D01*
G01*
X29475000Y31825000D01*
G75*
G02*
X29712500Y32062500I237500J0D01*
G01*
X30187500Y32062500D01*
G75*
G02*
X30425000Y31825000I0J-237500D01*
G01*
X30425000Y31225000D01*
G75*
G02*
X30187500Y30987500I-237500J0D01*
G01*
G37*
G36*
G01*
X30187500Y29262500D02*
X29712500Y29262500D01*
G75*
G02*
X29475000Y29500000I0J237500D01*
G01*
X29475000Y30100000D01*
G75*
G02*
X29712500Y30337500I237500J0D01*
G01*
X30187500Y30337500D01*
G75*
G02*
X30425000Y30100000I0J-237500D01*
G01*
X30425000Y29500000D01*
G75*
G02*
X30187500Y29262500I-237500J0D01*
G01*
G37*
%TD*%
%TO.C,C19*%
G36*
G01*
X36925000Y22762500D02*
X36925000Y23237500D01*
G75*
G02*
X37162500Y23475000I237500J0D01*
G01*
X37762500Y23475000D01*
G75*
G02*
X38000000Y23237500I0J-237500D01*
G01*
X38000000Y22762500D01*
G75*
G02*
X37762500Y22525000I-237500J0D01*
G01*
X37162500Y22525000D01*
G75*
G02*
X36925000Y22762500I0J237500D01*
G01*
G37*
G36*
G01*
X35200000Y22762500D02*
X35200000Y23237500D01*
G75*
G02*
X35437500Y23475000I237500J0D01*
G01*
X36037500Y23475000D01*
G75*
G02*
X36275000Y23237500I0J-237500D01*
G01*
X36275000Y22762500D01*
G75*
G02*
X36037500Y22525000I-237500J0D01*
G01*
X35437500Y22525000D01*
G75*
G02*
X35200000Y22762500I0J237500D01*
G01*
G37*
%TD*%
%TO.C,C18*%
G36*
G01*
X17775000Y25887500D02*
X17775000Y25412500D01*
G75*
G02*
X17537500Y25175000I-237500J0D01*
G01*
X16937500Y25175000D01*
G75*
G02*
X16700000Y25412500I0J237500D01*
G01*
X16700000Y25887500D01*
G75*
G02*
X16937500Y26125000I237500J0D01*
G01*
X17537500Y26125000D01*
G75*
G02*
X17775000Y25887500I0J-237500D01*
G01*
G37*
G36*
G01*
X19500000Y25887500D02*
X19500000Y25412500D01*
G75*
G02*
X19262500Y25175000I-237500J0D01*
G01*
X18662500Y25175000D01*
G75*
G02*
X18425000Y25412500I0J237500D01*
G01*
X18425000Y25887500D01*
G75*
G02*
X18662500Y26125000I237500J0D01*
G01*
X19262500Y26125000D01*
G75*
G02*
X19500000Y25887500I0J-237500D01*
G01*
G37*
%TD*%
%TO.C,FB2*%
G36*
G01*
X10525000Y34650001D02*
X10525000Y33949999D01*
G75*
G02*
X10275001Y33700000I-249999J0D01*
G01*
X9724999Y33700000D01*
G75*
G02*
X9475000Y33949999I0J249999D01*
G01*
X9475000Y34650001D01*
G75*
G02*
X9724999Y34900000I249999J0D01*
G01*
X10275001Y34900000D01*
G75*
G02*
X10525000Y34650001I0J-249999D01*
G01*
G37*
G36*
G01*
X12825000Y34650001D02*
X12825000Y33949999D01*
G75*
G02*
X12575001Y33700000I-249999J0D01*
G01*
X12024999Y33700000D01*
G75*
G02*
X11775000Y33949999I0J249999D01*
G01*
X11775000Y34650001D01*
G75*
G02*
X12024999Y34900000I249999J0D01*
G01*
X12575001Y34900000D01*
G75*
G02*
X12825000Y34650001I0J-249999D01*
G01*
G37*
%TD*%
%TO.C,R30*%
G36*
G01*
X55287500Y31225000D02*
X54812500Y31225000D01*
G75*
G02*
X54575000Y31462500I0J237500D01*
G01*
X54575000Y31962500D01*
G75*
G02*
X54812500Y32200000I237500J0D01*
G01*
X55287500Y32200000D01*
G75*
G02*
X55525000Y31962500I0J-237500D01*
G01*
X55525000Y31462500D01*
G75*
G02*
X55287500Y31225000I-237500J0D01*
G01*
G37*
G36*
G01*
X55287500Y29400000D02*
X54812500Y29400000D01*
G75*
G02*
X54575000Y29637500I0J237500D01*
G01*
X54575000Y30137500D01*
G75*
G02*
X54812500Y30375000I237500J0D01*
G01*
X55287500Y30375000D01*
G75*
G02*
X55525000Y30137500I0J-237500D01*
G01*
X55525000Y29637500D01*
G75*
G02*
X55287500Y29400000I-237500J0D01*
G01*
G37*
%TD*%
%TO.C,R29*%
G36*
G01*
X57187500Y31225000D02*
X56712500Y31225000D01*
G75*
G02*
X56475000Y31462500I0J237500D01*
G01*
X56475000Y31962500D01*
G75*
G02*
X56712500Y32200000I237500J0D01*
G01*
X57187500Y32200000D01*
G75*
G02*
X57425000Y31962500I0J-237500D01*
G01*
X57425000Y31462500D01*
G75*
G02*
X57187500Y31225000I-237500J0D01*
G01*
G37*
G36*
G01*
X57187500Y29400000D02*
X56712500Y29400000D01*
G75*
G02*
X56475000Y29637500I0J237500D01*
G01*
X56475000Y30137500D01*
G75*
G02*
X56712500Y30375000I237500J0D01*
G01*
X57187500Y30375000D01*
G75*
G02*
X57425000Y30137500I0J-237500D01*
G01*
X57425000Y29637500D01*
G75*
G02*
X57187500Y29400000I-237500J0D01*
G01*
G37*
%TD*%
%TO.C,R28*%
G36*
G01*
X56712500Y17475000D02*
X57187500Y17475000D01*
G75*
G02*
X57425000Y17237500I0J-237500D01*
G01*
X57425000Y16737500D01*
G75*
G02*
X57187500Y16500000I-237500J0D01*
G01*
X56712500Y16500000D01*
G75*
G02*
X56475000Y16737500I0J237500D01*
G01*
X56475000Y17237500D01*
G75*
G02*
X56712500Y17475000I237500J0D01*
G01*
G37*
G36*
G01*
X56712500Y19300000D02*
X57187500Y19300000D01*
G75*
G02*
X57425000Y19062500I0J-237500D01*
G01*
X57425000Y18562500D01*
G75*
G02*
X57187500Y18325000I-237500J0D01*
G01*
X56712500Y18325000D01*
G75*
G02*
X56475000Y18562500I0J237500D01*
G01*
X56475000Y19062500D01*
G75*
G02*
X56712500Y19300000I237500J0D01*
G01*
G37*
%TD*%
%TO.C,R27*%
G36*
G01*
X54812500Y17475000D02*
X55287500Y17475000D01*
G75*
G02*
X55525000Y17237500I0J-237500D01*
G01*
X55525000Y16737500D01*
G75*
G02*
X55287500Y16500000I-237500J0D01*
G01*
X54812500Y16500000D01*
G75*
G02*
X54575000Y16737500I0J237500D01*
G01*
X54575000Y17237500D01*
G75*
G02*
X54812500Y17475000I237500J0D01*
G01*
G37*
G36*
G01*
X54812500Y19300000D02*
X55287500Y19300000D01*
G75*
G02*
X55525000Y19062500I0J-237500D01*
G01*
X55525000Y18562500D01*
G75*
G02*
X55287500Y18325000I-237500J0D01*
G01*
X54812500Y18325000D01*
G75*
G02*
X54575000Y18562500I0J237500D01*
G01*
X54575000Y19062500D01*
G75*
G02*
X54812500Y19300000I237500J0D01*
G01*
G37*
%TD*%
%TO.C,C17*%
G36*
G01*
X45562500Y17500000D02*
X46037500Y17500000D01*
G75*
G02*
X46275000Y17262500I0J-237500D01*
G01*
X46275000Y16662500D01*
G75*
G02*
X46037500Y16425000I-237500J0D01*
G01*
X45562500Y16425000D01*
G75*
G02*
X45325000Y16662500I0J237500D01*
G01*
X45325000Y17262500D01*
G75*
G02*
X45562500Y17500000I237500J0D01*
G01*
G37*
G36*
G01*
X45562500Y15775000D02*
X46037500Y15775000D01*
G75*
G02*
X46275000Y15537500I0J-237500D01*
G01*
X46275000Y14937500D01*
G75*
G02*
X46037500Y14700000I-237500J0D01*
G01*
X45562500Y14700000D01*
G75*
G02*
X45325000Y14937500I0J237500D01*
G01*
X45325000Y15537500D01*
G75*
G02*
X45562500Y15775000I237500J0D01*
G01*
G37*
%TD*%
%TO.C,C16*%
G36*
G01*
X45562500Y37980000D02*
X46037500Y37980000D01*
G75*
G02*
X46275000Y37742500I0J-237500D01*
G01*
X46275000Y37142500D01*
G75*
G02*
X46037500Y36905000I-237500J0D01*
G01*
X45562500Y36905000D01*
G75*
G02*
X45325000Y37142500I0J237500D01*
G01*
X45325000Y37742500D01*
G75*
G02*
X45562500Y37980000I237500J0D01*
G01*
G37*
G36*
G01*
X45562500Y36255000D02*
X46037500Y36255000D01*
G75*
G02*
X46275000Y36017500I0J-237500D01*
G01*
X46275000Y35417500D01*
G75*
G02*
X46037500Y35180000I-237500J0D01*
G01*
X45562500Y35180000D01*
G75*
G02*
X45325000Y35417500I0J237500D01*
G01*
X45325000Y36017500D01*
G75*
G02*
X45562500Y36255000I237500J0D01*
G01*
G37*
%TD*%
%TO.C,C15*%
G36*
G01*
X45562500Y27750000D02*
X46037500Y27750000D01*
G75*
G02*
X46275000Y27512500I0J-237500D01*
G01*
X46275000Y26912500D01*
G75*
G02*
X46037500Y26675000I-237500J0D01*
G01*
X45562500Y26675000D01*
G75*
G02*
X45325000Y26912500I0J237500D01*
G01*
X45325000Y27512500D01*
G75*
G02*
X45562500Y27750000I237500J0D01*
G01*
G37*
G36*
G01*
X45562500Y26025000D02*
X46037500Y26025000D01*
G75*
G02*
X46275000Y25787500I0J-237500D01*
G01*
X46275000Y25187500D01*
G75*
G02*
X46037500Y24950000I-237500J0D01*
G01*
X45562500Y24950000D01*
G75*
G02*
X45325000Y25187500I0J237500D01*
G01*
X45325000Y25787500D01*
G75*
G02*
X45562500Y26025000I237500J0D01*
G01*
G37*
%TD*%
D14*
%TO.C,H4*%
X76800000Y11500000D03*
%TD*%
%TO.C,H3*%
X76750000Y37200000D03*
%TD*%
%TO.C,H2*%
X4000000Y33700000D03*
%TD*%
%TO.C,H1*%
X4000000Y15000000D03*
%TD*%
%TO.C,C14*%
G36*
G01*
X11987500Y27025000D02*
X11987500Y27975000D01*
G75*
G02*
X12237500Y28225000I250000J0D01*
G01*
X12912500Y28225000D01*
G75*
G02*
X13162500Y27975000I0J-250000D01*
G01*
X13162500Y27025000D01*
G75*
G02*
X12912500Y26775000I-250000J0D01*
G01*
X12237500Y26775000D01*
G75*
G02*
X11987500Y27025000I0J250000D01*
G01*
G37*
G36*
G01*
X9912500Y27025000D02*
X9912500Y27975000D01*
G75*
G02*
X10162500Y28225000I250000J0D01*
G01*
X10837500Y28225000D01*
G75*
G02*
X11087500Y27975000I0J-250000D01*
G01*
X11087500Y27025000D01*
G75*
G02*
X10837500Y26775000I-250000J0D01*
G01*
X10162500Y26775000D01*
G75*
G02*
X9912500Y27025000I0J250000D01*
G01*
G37*
%TD*%
D15*
%TO.C,J1*%
X5350000Y28670000D03*
X5350000Y20030000D03*
D16*
X1200000Y28670000D03*
X1200000Y20030000D03*
D17*
X4850000Y21460000D03*
X4850000Y27240000D03*
D18*
X6100000Y26750000D03*
X6100000Y27550000D03*
X6100000Y21950000D03*
X6100000Y21150000D03*
D19*
X6100000Y24600000D03*
X6100000Y24100000D03*
X6100000Y25100000D03*
X6100000Y23600000D03*
X6100000Y25600000D03*
X6100000Y23100000D03*
X6100000Y26100000D03*
X6100000Y22600000D03*
%TD*%
D20*
%TO.C,U8*%
X14150000Y40700000D03*
X12250000Y40700000D03*
X12250000Y42900000D03*
X13200000Y42900000D03*
X14150000Y42900000D03*
%TD*%
%TO.C,U7*%
G36*
G01*
X31100000Y16900000D02*
X31100000Y15575000D01*
G75*
G02*
X31025000Y15500000I-75000J0D01*
G01*
X30875000Y15500000D01*
G75*
G02*
X30800000Y15575000I0J75000D01*
G01*
X30800000Y16900000D01*
G75*
G02*
X30875000Y16975000I75000J0D01*
G01*
X31025000Y16975000D01*
G75*
G02*
X31100000Y16900000I0J-75000D01*
G01*
G37*
G36*
G01*
X30600000Y16900000D02*
X30600000Y15575000D01*
G75*
G02*
X30525000Y15500000I-75000J0D01*
G01*
X30375000Y15500000D01*
G75*
G02*
X30300000Y15575000I0J75000D01*
G01*
X30300000Y16900000D01*
G75*
G02*
X30375000Y16975000I75000J0D01*
G01*
X30525000Y16975000D01*
G75*
G02*
X30600000Y16900000I0J-75000D01*
G01*
G37*
G36*
G01*
X30100000Y16900000D02*
X30100000Y15575000D01*
G75*
G02*
X30025000Y15500000I-75000J0D01*
G01*
X29875000Y15500000D01*
G75*
G02*
X29800000Y15575000I0J75000D01*
G01*
X29800000Y16900000D01*
G75*
G02*
X29875000Y16975000I75000J0D01*
G01*
X30025000Y16975000D01*
G75*
G02*
X30100000Y16900000I0J-75000D01*
G01*
G37*
G36*
G01*
X29600000Y16900000D02*
X29600000Y15575000D01*
G75*
G02*
X29525000Y15500000I-75000J0D01*
G01*
X29375000Y15500000D01*
G75*
G02*
X29300000Y15575000I0J75000D01*
G01*
X29300000Y16900000D01*
G75*
G02*
X29375000Y16975000I75000J0D01*
G01*
X29525000Y16975000D01*
G75*
G02*
X29600000Y16900000I0J-75000D01*
G01*
G37*
G36*
G01*
X29100000Y16900000D02*
X29100000Y15575000D01*
G75*
G02*
X29025000Y15500000I-75000J0D01*
G01*
X28875000Y15500000D01*
G75*
G02*
X28800000Y15575000I0J75000D01*
G01*
X28800000Y16900000D01*
G75*
G02*
X28875000Y16975000I75000J0D01*
G01*
X29025000Y16975000D01*
G75*
G02*
X29100000Y16900000I0J-75000D01*
G01*
G37*
G36*
G01*
X28600000Y16900000D02*
X28600000Y15575000D01*
G75*
G02*
X28525000Y15500000I-75000J0D01*
G01*
X28375000Y15500000D01*
G75*
G02*
X28300000Y15575000I0J75000D01*
G01*
X28300000Y16900000D01*
G75*
G02*
X28375000Y16975000I75000J0D01*
G01*
X28525000Y16975000D01*
G75*
G02*
X28600000Y16900000I0J-75000D01*
G01*
G37*
G36*
G01*
X28100000Y16900000D02*
X28100000Y15575000D01*
G75*
G02*
X28025000Y15500000I-75000J0D01*
G01*
X27875000Y15500000D01*
G75*
G02*
X27800000Y15575000I0J75000D01*
G01*
X27800000Y16900000D01*
G75*
G02*
X27875000Y16975000I75000J0D01*
G01*
X28025000Y16975000D01*
G75*
G02*
X28100000Y16900000I0J-75000D01*
G01*
G37*
G36*
G01*
X27600000Y16900000D02*
X27600000Y15575000D01*
G75*
G02*
X27525000Y15500000I-75000J0D01*
G01*
X27375000Y15500000D01*
G75*
G02*
X27300000Y15575000I0J75000D01*
G01*
X27300000Y16900000D01*
G75*
G02*
X27375000Y16975000I75000J0D01*
G01*
X27525000Y16975000D01*
G75*
G02*
X27600000Y16900000I0J-75000D01*
G01*
G37*
G36*
G01*
X27100000Y16900000D02*
X27100000Y15575000D01*
G75*
G02*
X27025000Y15500000I-75000J0D01*
G01*
X26875000Y15500000D01*
G75*
G02*
X26800000Y15575000I0J75000D01*
G01*
X26800000Y16900000D01*
G75*
G02*
X26875000Y16975000I75000J0D01*
G01*
X27025000Y16975000D01*
G75*
G02*
X27100000Y16900000I0J-75000D01*
G01*
G37*
G36*
G01*
X26600000Y16900000D02*
X26600000Y15575000D01*
G75*
G02*
X26525000Y15500000I-75000J0D01*
G01*
X26375000Y15500000D01*
G75*
G02*
X26300000Y15575000I0J75000D01*
G01*
X26300000Y16900000D01*
G75*
G02*
X26375000Y16975000I75000J0D01*
G01*
X26525000Y16975000D01*
G75*
G02*
X26600000Y16900000I0J-75000D01*
G01*
G37*
G36*
G01*
X26100000Y16900000D02*
X26100000Y15575000D01*
G75*
G02*
X26025000Y15500000I-75000J0D01*
G01*
X25875000Y15500000D01*
G75*
G02*
X25800000Y15575000I0J75000D01*
G01*
X25800000Y16900000D01*
G75*
G02*
X25875000Y16975000I75000J0D01*
G01*
X26025000Y16975000D01*
G75*
G02*
X26100000Y16900000I0J-75000D01*
G01*
G37*
G36*
G01*
X25600000Y16900000D02*
X25600000Y15575000D01*
G75*
G02*
X25525000Y15500000I-75000J0D01*
G01*
X25375000Y15500000D01*
G75*
G02*
X25300000Y15575000I0J75000D01*
G01*
X25300000Y16900000D01*
G75*
G02*
X25375000Y16975000I75000J0D01*
G01*
X25525000Y16975000D01*
G75*
G02*
X25600000Y16900000I0J-75000D01*
G01*
G37*
G36*
G01*
X25100000Y16900000D02*
X25100000Y15575000D01*
G75*
G02*
X25025000Y15500000I-75000J0D01*
G01*
X24875000Y15500000D01*
G75*
G02*
X24800000Y15575000I0J75000D01*
G01*
X24800000Y16900000D01*
G75*
G02*
X24875000Y16975000I75000J0D01*
G01*
X25025000Y16975000D01*
G75*
G02*
X25100000Y16900000I0J-75000D01*
G01*
G37*
G36*
G01*
X24600000Y16900000D02*
X24600000Y15575000D01*
G75*
G02*
X24525000Y15500000I-75000J0D01*
G01*
X24375000Y15500000D01*
G75*
G02*
X24300000Y15575000I0J75000D01*
G01*
X24300000Y16900000D01*
G75*
G02*
X24375000Y16975000I75000J0D01*
G01*
X24525000Y16975000D01*
G75*
G02*
X24600000Y16900000I0J-75000D01*
G01*
G37*
G36*
G01*
X24100000Y16900000D02*
X24100000Y15575000D01*
G75*
G02*
X24025000Y15500000I-75000J0D01*
G01*
X23875000Y15500000D01*
G75*
G02*
X23800000Y15575000I0J75000D01*
G01*
X23800000Y16900000D01*
G75*
G02*
X23875000Y16975000I75000J0D01*
G01*
X24025000Y16975000D01*
G75*
G02*
X24100000Y16900000I0J-75000D01*
G01*
G37*
G36*
G01*
X23600000Y16900000D02*
X23600000Y15575000D01*
G75*
G02*
X23525000Y15500000I-75000J0D01*
G01*
X23375000Y15500000D01*
G75*
G02*
X23300000Y15575000I0J75000D01*
G01*
X23300000Y16900000D01*
G75*
G02*
X23375000Y16975000I75000J0D01*
G01*
X23525000Y16975000D01*
G75*
G02*
X23600000Y16900000I0J-75000D01*
G01*
G37*
G36*
G01*
X22275000Y18225000D02*
X22275000Y18075000D01*
G75*
G02*
X22200000Y18000000I-75000J0D01*
G01*
X20875000Y18000000D01*
G75*
G02*
X20800000Y18075000I0J75000D01*
G01*
X20800000Y18225000D01*
G75*
G02*
X20875000Y18300000I75000J0D01*
G01*
X22200000Y18300000D01*
G75*
G02*
X22275000Y18225000I0J-75000D01*
G01*
G37*
G36*
G01*
X22275000Y18725000D02*
X22275000Y18575000D01*
G75*
G02*
X22200000Y18500000I-75000J0D01*
G01*
X20875000Y18500000D01*
G75*
G02*
X20800000Y18575000I0J75000D01*
G01*
X20800000Y18725000D01*
G75*
G02*
X20875000Y18800000I75000J0D01*
G01*
X22200000Y18800000D01*
G75*
G02*
X22275000Y18725000I0J-75000D01*
G01*
G37*
G36*
G01*
X22275000Y19225000D02*
X22275000Y19075000D01*
G75*
G02*
X22200000Y19000000I-75000J0D01*
G01*
X20875000Y19000000D01*
G75*
G02*
X20800000Y19075000I0J75000D01*
G01*
X20800000Y19225000D01*
G75*
G02*
X20875000Y19300000I75000J0D01*
G01*
X22200000Y19300000D01*
G75*
G02*
X22275000Y19225000I0J-75000D01*
G01*
G37*
G36*
G01*
X22275000Y19725000D02*
X22275000Y19575000D01*
G75*
G02*
X22200000Y19500000I-75000J0D01*
G01*
X20875000Y19500000D01*
G75*
G02*
X20800000Y19575000I0J75000D01*
G01*
X20800000Y19725000D01*
G75*
G02*
X20875000Y19800000I75000J0D01*
G01*
X22200000Y19800000D01*
G75*
G02*
X22275000Y19725000I0J-75000D01*
G01*
G37*
G36*
G01*
X22275000Y20225000D02*
X22275000Y20075000D01*
G75*
G02*
X22200000Y20000000I-75000J0D01*
G01*
X20875000Y20000000D01*
G75*
G02*
X20800000Y20075000I0J75000D01*
G01*
X20800000Y20225000D01*
G75*
G02*
X20875000Y20300000I75000J0D01*
G01*
X22200000Y20300000D01*
G75*
G02*
X22275000Y20225000I0J-75000D01*
G01*
G37*
G36*
G01*
X22275000Y20725000D02*
X22275000Y20575000D01*
G75*
G02*
X22200000Y20500000I-75000J0D01*
G01*
X20875000Y20500000D01*
G75*
G02*
X20800000Y20575000I0J75000D01*
G01*
X20800000Y20725000D01*
G75*
G02*
X20875000Y20800000I75000J0D01*
G01*
X22200000Y20800000D01*
G75*
G02*
X22275000Y20725000I0J-75000D01*
G01*
G37*
G36*
G01*
X22275000Y21225000D02*
X22275000Y21075000D01*
G75*
G02*
X22200000Y21000000I-75000J0D01*
G01*
X20875000Y21000000D01*
G75*
G02*
X20800000Y21075000I0J75000D01*
G01*
X20800000Y21225000D01*
G75*
G02*
X20875000Y21300000I75000J0D01*
G01*
X22200000Y21300000D01*
G75*
G02*
X22275000Y21225000I0J-75000D01*
G01*
G37*
G36*
G01*
X22275000Y21725000D02*
X22275000Y21575000D01*
G75*
G02*
X22200000Y21500000I-75000J0D01*
G01*
X20875000Y21500000D01*
G75*
G02*
X20800000Y21575000I0J75000D01*
G01*
X20800000Y21725000D01*
G75*
G02*
X20875000Y21800000I75000J0D01*
G01*
X22200000Y21800000D01*
G75*
G02*
X22275000Y21725000I0J-75000D01*
G01*
G37*
G36*
G01*
X22275000Y22225000D02*
X22275000Y22075000D01*
G75*
G02*
X22200000Y22000000I-75000J0D01*
G01*
X20875000Y22000000D01*
G75*
G02*
X20800000Y22075000I0J75000D01*
G01*
X20800000Y22225000D01*
G75*
G02*
X20875000Y22300000I75000J0D01*
G01*
X22200000Y22300000D01*
G75*
G02*
X22275000Y22225000I0J-75000D01*
G01*
G37*
G36*
G01*
X22275000Y22725000D02*
X22275000Y22575000D01*
G75*
G02*
X22200000Y22500000I-75000J0D01*
G01*
X20875000Y22500000D01*
G75*
G02*
X20800000Y22575000I0J75000D01*
G01*
X20800000Y22725000D01*
G75*
G02*
X20875000Y22800000I75000J0D01*
G01*
X22200000Y22800000D01*
G75*
G02*
X22275000Y22725000I0J-75000D01*
G01*
G37*
G36*
G01*
X22275000Y23225000D02*
X22275000Y23075000D01*
G75*
G02*
X22200000Y23000000I-75000J0D01*
G01*
X20875000Y23000000D01*
G75*
G02*
X20800000Y23075000I0J75000D01*
G01*
X20800000Y23225000D01*
G75*
G02*
X20875000Y23300000I75000J0D01*
G01*
X22200000Y23300000D01*
G75*
G02*
X22275000Y23225000I0J-75000D01*
G01*
G37*
G36*
G01*
X22275000Y23725000D02*
X22275000Y23575000D01*
G75*
G02*
X22200000Y23500000I-75000J0D01*
G01*
X20875000Y23500000D01*
G75*
G02*
X20800000Y23575000I0J75000D01*
G01*
X20800000Y23725000D01*
G75*
G02*
X20875000Y23800000I75000J0D01*
G01*
X22200000Y23800000D01*
G75*
G02*
X22275000Y23725000I0J-75000D01*
G01*
G37*
G36*
G01*
X22275000Y24225000D02*
X22275000Y24075000D01*
G75*
G02*
X22200000Y24000000I-75000J0D01*
G01*
X20875000Y24000000D01*
G75*
G02*
X20800000Y24075000I0J75000D01*
G01*
X20800000Y24225000D01*
G75*
G02*
X20875000Y24300000I75000J0D01*
G01*
X22200000Y24300000D01*
G75*
G02*
X22275000Y24225000I0J-75000D01*
G01*
G37*
G36*
G01*
X22275000Y24725000D02*
X22275000Y24575000D01*
G75*
G02*
X22200000Y24500000I-75000J0D01*
G01*
X20875000Y24500000D01*
G75*
G02*
X20800000Y24575000I0J75000D01*
G01*
X20800000Y24725000D01*
G75*
G02*
X20875000Y24800000I75000J0D01*
G01*
X22200000Y24800000D01*
G75*
G02*
X22275000Y24725000I0J-75000D01*
G01*
G37*
G36*
G01*
X22275000Y25225000D02*
X22275000Y25075000D01*
G75*
G02*
X22200000Y25000000I-75000J0D01*
G01*
X20875000Y25000000D01*
G75*
G02*
X20800000Y25075000I0J75000D01*
G01*
X20800000Y25225000D01*
G75*
G02*
X20875000Y25300000I75000J0D01*
G01*
X22200000Y25300000D01*
G75*
G02*
X22275000Y25225000I0J-75000D01*
G01*
G37*
G36*
G01*
X22275000Y25725000D02*
X22275000Y25575000D01*
G75*
G02*
X22200000Y25500000I-75000J0D01*
G01*
X20875000Y25500000D01*
G75*
G02*
X20800000Y25575000I0J75000D01*
G01*
X20800000Y25725000D01*
G75*
G02*
X20875000Y25800000I75000J0D01*
G01*
X22200000Y25800000D01*
G75*
G02*
X22275000Y25725000I0J-75000D01*
G01*
G37*
G36*
G01*
X23600000Y28225000D02*
X23600000Y26900000D01*
G75*
G02*
X23525000Y26825000I-75000J0D01*
G01*
X23375000Y26825000D01*
G75*
G02*
X23300000Y26900000I0J75000D01*
G01*
X23300000Y28225000D01*
G75*
G02*
X23375000Y28300000I75000J0D01*
G01*
X23525000Y28300000D01*
G75*
G02*
X23600000Y28225000I0J-75000D01*
G01*
G37*
G36*
G01*
X24100000Y28225000D02*
X24100000Y26900000D01*
G75*
G02*
X24025000Y26825000I-75000J0D01*
G01*
X23875000Y26825000D01*
G75*
G02*
X23800000Y26900000I0J75000D01*
G01*
X23800000Y28225000D01*
G75*
G02*
X23875000Y28300000I75000J0D01*
G01*
X24025000Y28300000D01*
G75*
G02*
X24100000Y28225000I0J-75000D01*
G01*
G37*
G36*
G01*
X24600000Y28225000D02*
X24600000Y26900000D01*
G75*
G02*
X24525000Y26825000I-75000J0D01*
G01*
X24375000Y26825000D01*
G75*
G02*
X24300000Y26900000I0J75000D01*
G01*
X24300000Y28225000D01*
G75*
G02*
X24375000Y28300000I75000J0D01*
G01*
X24525000Y28300000D01*
G75*
G02*
X24600000Y28225000I0J-75000D01*
G01*
G37*
G36*
G01*
X25100000Y28225000D02*
X25100000Y26900000D01*
G75*
G02*
X25025000Y26825000I-75000J0D01*
G01*
X24875000Y26825000D01*
G75*
G02*
X24800000Y26900000I0J75000D01*
G01*
X24800000Y28225000D01*
G75*
G02*
X24875000Y28300000I75000J0D01*
G01*
X25025000Y28300000D01*
G75*
G02*
X25100000Y28225000I0J-75000D01*
G01*
G37*
G36*
G01*
X25600000Y28225000D02*
X25600000Y26900000D01*
G75*
G02*
X25525000Y26825000I-75000J0D01*
G01*
X25375000Y26825000D01*
G75*
G02*
X25300000Y26900000I0J75000D01*
G01*
X25300000Y28225000D01*
G75*
G02*
X25375000Y28300000I75000J0D01*
G01*
X25525000Y28300000D01*
G75*
G02*
X25600000Y28225000I0J-75000D01*
G01*
G37*
G36*
G01*
X26100000Y28225000D02*
X26100000Y26900000D01*
G75*
G02*
X26025000Y26825000I-75000J0D01*
G01*
X25875000Y26825000D01*
G75*
G02*
X25800000Y26900000I0J75000D01*
G01*
X25800000Y28225000D01*
G75*
G02*
X25875000Y28300000I75000J0D01*
G01*
X26025000Y28300000D01*
G75*
G02*
X26100000Y28225000I0J-75000D01*
G01*
G37*
G36*
G01*
X26600000Y28225000D02*
X26600000Y26900000D01*
G75*
G02*
X26525000Y26825000I-75000J0D01*
G01*
X26375000Y26825000D01*
G75*
G02*
X26300000Y26900000I0J75000D01*
G01*
X26300000Y28225000D01*
G75*
G02*
X26375000Y28300000I75000J0D01*
G01*
X26525000Y28300000D01*
G75*
G02*
X26600000Y28225000I0J-75000D01*
G01*
G37*
G36*
G01*
X27100000Y28225000D02*
X27100000Y26900000D01*
G75*
G02*
X27025000Y26825000I-75000J0D01*
G01*
X26875000Y26825000D01*
G75*
G02*
X26800000Y26900000I0J75000D01*
G01*
X26800000Y28225000D01*
G75*
G02*
X26875000Y28300000I75000J0D01*
G01*
X27025000Y28300000D01*
G75*
G02*
X27100000Y28225000I0J-75000D01*
G01*
G37*
G36*
G01*
X27600000Y28225000D02*
X27600000Y26900000D01*
G75*
G02*
X27525000Y26825000I-75000J0D01*
G01*
X27375000Y26825000D01*
G75*
G02*
X27300000Y26900000I0J75000D01*
G01*
X27300000Y28225000D01*
G75*
G02*
X27375000Y28300000I75000J0D01*
G01*
X27525000Y28300000D01*
G75*
G02*
X27600000Y28225000I0J-75000D01*
G01*
G37*
G36*
G01*
X28100000Y28225000D02*
X28100000Y26900000D01*
G75*
G02*
X28025000Y26825000I-75000J0D01*
G01*
X27875000Y26825000D01*
G75*
G02*
X27800000Y26900000I0J75000D01*
G01*
X27800000Y28225000D01*
G75*
G02*
X27875000Y28300000I75000J0D01*
G01*
X28025000Y28300000D01*
G75*
G02*
X28100000Y28225000I0J-75000D01*
G01*
G37*
G36*
G01*
X28600000Y28225000D02*
X28600000Y26900000D01*
G75*
G02*
X28525000Y26825000I-75000J0D01*
G01*
X28375000Y26825000D01*
G75*
G02*
X28300000Y26900000I0J75000D01*
G01*
X28300000Y28225000D01*
G75*
G02*
X28375000Y28300000I75000J0D01*
G01*
X28525000Y28300000D01*
G75*
G02*
X28600000Y28225000I0J-75000D01*
G01*
G37*
G36*
G01*
X29100000Y28225000D02*
X29100000Y26900000D01*
G75*
G02*
X29025000Y26825000I-75000J0D01*
G01*
X28875000Y26825000D01*
G75*
G02*
X28800000Y26900000I0J75000D01*
G01*
X28800000Y28225000D01*
G75*
G02*
X28875000Y28300000I75000J0D01*
G01*
X29025000Y28300000D01*
G75*
G02*
X29100000Y28225000I0J-75000D01*
G01*
G37*
G36*
G01*
X29600000Y28225000D02*
X29600000Y26900000D01*
G75*
G02*
X29525000Y26825000I-75000J0D01*
G01*
X29375000Y26825000D01*
G75*
G02*
X29300000Y26900000I0J75000D01*
G01*
X29300000Y28225000D01*
G75*
G02*
X29375000Y28300000I75000J0D01*
G01*
X29525000Y28300000D01*
G75*
G02*
X29600000Y28225000I0J-75000D01*
G01*
G37*
G36*
G01*
X30100000Y28225000D02*
X30100000Y26900000D01*
G75*
G02*
X30025000Y26825000I-75000J0D01*
G01*
X29875000Y26825000D01*
G75*
G02*
X29800000Y26900000I0J75000D01*
G01*
X29800000Y28225000D01*
G75*
G02*
X29875000Y28300000I75000J0D01*
G01*
X30025000Y28300000D01*
G75*
G02*
X30100000Y28225000I0J-75000D01*
G01*
G37*
G36*
G01*
X30600000Y28225000D02*
X30600000Y26900000D01*
G75*
G02*
X30525000Y26825000I-75000J0D01*
G01*
X30375000Y26825000D01*
G75*
G02*
X30300000Y26900000I0J75000D01*
G01*
X30300000Y28225000D01*
G75*
G02*
X30375000Y28300000I75000J0D01*
G01*
X30525000Y28300000D01*
G75*
G02*
X30600000Y28225000I0J-75000D01*
G01*
G37*
G36*
G01*
X31100000Y28225000D02*
X31100000Y26900000D01*
G75*
G02*
X31025000Y26825000I-75000J0D01*
G01*
X30875000Y26825000D01*
G75*
G02*
X30800000Y26900000I0J75000D01*
G01*
X30800000Y28225000D01*
G75*
G02*
X30875000Y28300000I75000J0D01*
G01*
X31025000Y28300000D01*
G75*
G02*
X31100000Y28225000I0J-75000D01*
G01*
G37*
G36*
G01*
X33600000Y25725000D02*
X33600000Y25575000D01*
G75*
G02*
X33525000Y25500000I-75000J0D01*
G01*
X32200000Y25500000D01*
G75*
G02*
X32125000Y25575000I0J75000D01*
G01*
X32125000Y25725000D01*
G75*
G02*
X32200000Y25800000I75000J0D01*
G01*
X33525000Y25800000D01*
G75*
G02*
X33600000Y25725000I0J-75000D01*
G01*
G37*
G36*
G01*
X33600000Y25225000D02*
X33600000Y25075000D01*
G75*
G02*
X33525000Y25000000I-75000J0D01*
G01*
X32200000Y25000000D01*
G75*
G02*
X32125000Y25075000I0J75000D01*
G01*
X32125000Y25225000D01*
G75*
G02*
X32200000Y25300000I75000J0D01*
G01*
X33525000Y25300000D01*
G75*
G02*
X33600000Y25225000I0J-75000D01*
G01*
G37*
G36*
G01*
X33600000Y24725000D02*
X33600000Y24575000D01*
G75*
G02*
X33525000Y24500000I-75000J0D01*
G01*
X32200000Y24500000D01*
G75*
G02*
X32125000Y24575000I0J75000D01*
G01*
X32125000Y24725000D01*
G75*
G02*
X32200000Y24800000I75000J0D01*
G01*
X33525000Y24800000D01*
G75*
G02*
X33600000Y24725000I0J-75000D01*
G01*
G37*
G36*
G01*
X33600000Y24225000D02*
X33600000Y24075000D01*
G75*
G02*
X33525000Y24000000I-75000J0D01*
G01*
X32200000Y24000000D01*
G75*
G02*
X32125000Y24075000I0J75000D01*
G01*
X32125000Y24225000D01*
G75*
G02*
X32200000Y24300000I75000J0D01*
G01*
X33525000Y24300000D01*
G75*
G02*
X33600000Y24225000I0J-75000D01*
G01*
G37*
G36*
G01*
X33600000Y23725000D02*
X33600000Y23575000D01*
G75*
G02*
X33525000Y23500000I-75000J0D01*
G01*
X32200000Y23500000D01*
G75*
G02*
X32125000Y23575000I0J75000D01*
G01*
X32125000Y23725000D01*
G75*
G02*
X32200000Y23800000I75000J0D01*
G01*
X33525000Y23800000D01*
G75*
G02*
X33600000Y23725000I0J-75000D01*
G01*
G37*
G36*
G01*
X33600000Y23225000D02*
X33600000Y23075000D01*
G75*
G02*
X33525000Y23000000I-75000J0D01*
G01*
X32200000Y23000000D01*
G75*
G02*
X32125000Y23075000I0J75000D01*
G01*
X32125000Y23225000D01*
G75*
G02*
X32200000Y23300000I75000J0D01*
G01*
X33525000Y23300000D01*
G75*
G02*
X33600000Y23225000I0J-75000D01*
G01*
G37*
G36*
G01*
X33600000Y22725000D02*
X33600000Y22575000D01*
G75*
G02*
X33525000Y22500000I-75000J0D01*
G01*
X32200000Y22500000D01*
G75*
G02*
X32125000Y22575000I0J75000D01*
G01*
X32125000Y22725000D01*
G75*
G02*
X32200000Y22800000I75000J0D01*
G01*
X33525000Y22800000D01*
G75*
G02*
X33600000Y22725000I0J-75000D01*
G01*
G37*
G36*
G01*
X33600000Y22225000D02*
X33600000Y22075000D01*
G75*
G02*
X33525000Y22000000I-75000J0D01*
G01*
X32200000Y22000000D01*
G75*
G02*
X32125000Y22075000I0J75000D01*
G01*
X32125000Y22225000D01*
G75*
G02*
X32200000Y22300000I75000J0D01*
G01*
X33525000Y22300000D01*
G75*
G02*
X33600000Y22225000I0J-75000D01*
G01*
G37*
G36*
G01*
X33600000Y21725000D02*
X33600000Y21575000D01*
G75*
G02*
X33525000Y21500000I-75000J0D01*
G01*
X32200000Y21500000D01*
G75*
G02*
X32125000Y21575000I0J75000D01*
G01*
X32125000Y21725000D01*
G75*
G02*
X32200000Y21800000I75000J0D01*
G01*
X33525000Y21800000D01*
G75*
G02*
X33600000Y21725000I0J-75000D01*
G01*
G37*
G36*
G01*
X33600000Y21225000D02*
X33600000Y21075000D01*
G75*
G02*
X33525000Y21000000I-75000J0D01*
G01*
X32200000Y21000000D01*
G75*
G02*
X32125000Y21075000I0J75000D01*
G01*
X32125000Y21225000D01*
G75*
G02*
X32200000Y21300000I75000J0D01*
G01*
X33525000Y21300000D01*
G75*
G02*
X33600000Y21225000I0J-75000D01*
G01*
G37*
G36*
G01*
X33600000Y20725000D02*
X33600000Y20575000D01*
G75*
G02*
X33525000Y20500000I-75000J0D01*
G01*
X32200000Y20500000D01*
G75*
G02*
X32125000Y20575000I0J75000D01*
G01*
X32125000Y20725000D01*
G75*
G02*
X32200000Y20800000I75000J0D01*
G01*
X33525000Y20800000D01*
G75*
G02*
X33600000Y20725000I0J-75000D01*
G01*
G37*
G36*
G01*
X33600000Y20225000D02*
X33600000Y20075000D01*
G75*
G02*
X33525000Y20000000I-75000J0D01*
G01*
X32200000Y20000000D01*
G75*
G02*
X32125000Y20075000I0J75000D01*
G01*
X32125000Y20225000D01*
G75*
G02*
X32200000Y20300000I75000J0D01*
G01*
X33525000Y20300000D01*
G75*
G02*
X33600000Y20225000I0J-75000D01*
G01*
G37*
G36*
G01*
X33600000Y19725000D02*
X33600000Y19575000D01*
G75*
G02*
X33525000Y19500000I-75000J0D01*
G01*
X32200000Y19500000D01*
G75*
G02*
X32125000Y19575000I0J75000D01*
G01*
X32125000Y19725000D01*
G75*
G02*
X32200000Y19800000I75000J0D01*
G01*
X33525000Y19800000D01*
G75*
G02*
X33600000Y19725000I0J-75000D01*
G01*
G37*
G36*
G01*
X33600000Y19225000D02*
X33600000Y19075000D01*
G75*
G02*
X33525000Y19000000I-75000J0D01*
G01*
X32200000Y19000000D01*
G75*
G02*
X32125000Y19075000I0J75000D01*
G01*
X32125000Y19225000D01*
G75*
G02*
X32200000Y19300000I75000J0D01*
G01*
X33525000Y19300000D01*
G75*
G02*
X33600000Y19225000I0J-75000D01*
G01*
G37*
G36*
G01*
X33600000Y18725000D02*
X33600000Y18575000D01*
G75*
G02*
X33525000Y18500000I-75000J0D01*
G01*
X32200000Y18500000D01*
G75*
G02*
X32125000Y18575000I0J75000D01*
G01*
X32125000Y18725000D01*
G75*
G02*
X32200000Y18800000I75000J0D01*
G01*
X33525000Y18800000D01*
G75*
G02*
X33600000Y18725000I0J-75000D01*
G01*
G37*
G36*
G01*
X33600000Y18225000D02*
X33600000Y18075000D01*
G75*
G02*
X33525000Y18000000I-75000J0D01*
G01*
X32200000Y18000000D01*
G75*
G02*
X32125000Y18075000I0J75000D01*
G01*
X32125000Y18225000D01*
G75*
G02*
X32200000Y18300000I75000J0D01*
G01*
X33525000Y18300000D01*
G75*
G02*
X33600000Y18225000I0J-75000D01*
G01*
G37*
%TD*%
D21*
%TO.C,U1*%
X20000000Y32400000D03*
X20000000Y30500000D03*
X17800000Y30500000D03*
X17800000Y31450000D03*
X17800000Y32400000D03*
%TD*%
D22*
%TO.C,SW3*%
X74320000Y3870000D03*
D23*
X66700000Y3870000D03*
%TD*%
D22*
%TO.C,SW2*%
X74320000Y44830000D03*
D23*
X66700000Y44830000D03*
%TD*%
D22*
%TO.C,SW1*%
X27850000Y44830000D03*
X20230000Y37210000D03*
X27850000Y42290000D03*
X20230000Y39750000D03*
X27850000Y39750000D03*
X20230000Y42290000D03*
X27850000Y37210000D03*
D23*
X20230000Y44830000D03*
%TD*%
D24*
%TO.C,RN3*%
X62300000Y12920000D03*
D25*
X62300000Y13720000D03*
D24*
X62300000Y15320000D03*
D25*
X62300000Y14520000D03*
D24*
X60500000Y12920000D03*
D25*
X60500000Y14520000D03*
X60500000Y13720000D03*
D24*
X60500000Y15320000D03*
%TD*%
%TO.C,RN2*%
X62300000Y23150000D03*
D25*
X62300000Y23950000D03*
D24*
X62300000Y25550000D03*
D25*
X62300000Y24750000D03*
D24*
X60500000Y23150000D03*
D25*
X60500000Y24750000D03*
X60500000Y23950000D03*
D24*
X60500000Y25550000D03*
%TD*%
%TO.C,RN1*%
X62300000Y33380000D03*
D25*
X62300000Y34180000D03*
D24*
X62300000Y35780000D03*
D25*
X62300000Y34980000D03*
D24*
X60500000Y33380000D03*
D25*
X60500000Y34980000D03*
X60500000Y34180000D03*
D24*
X60500000Y35780000D03*
%TD*%
%TO.C,R26*%
G36*
G01*
X17375000Y42827500D02*
X17375000Y43302500D01*
G75*
G02*
X17612500Y43540000I237500J0D01*
G01*
X18112500Y43540000D01*
G75*
G02*
X18350000Y43302500I0J-237500D01*
G01*
X18350000Y42827500D01*
G75*
G02*
X18112500Y42590000I-237500J0D01*
G01*
X17612500Y42590000D01*
G75*
G02*
X17375000Y42827500I0J237500D01*
G01*
G37*
G36*
G01*
X15550000Y42827500D02*
X15550000Y43302500D01*
G75*
G02*
X15787500Y43540000I237500J0D01*
G01*
X16287500Y43540000D01*
G75*
G02*
X16525000Y43302500I0J-237500D01*
G01*
X16525000Y42827500D01*
G75*
G02*
X16287500Y42590000I-237500J0D01*
G01*
X15787500Y42590000D01*
G75*
G02*
X15550000Y42827500I0J237500D01*
G01*
G37*
%TD*%
%TO.C,R25*%
G36*
G01*
X17375000Y41327500D02*
X17375000Y41802500D01*
G75*
G02*
X17612500Y42040000I237500J0D01*
G01*
X18112500Y42040000D01*
G75*
G02*
X18350000Y41802500I0J-237500D01*
G01*
X18350000Y41327500D01*
G75*
G02*
X18112500Y41090000I-237500J0D01*
G01*
X17612500Y41090000D01*
G75*
G02*
X17375000Y41327500I0J237500D01*
G01*
G37*
G36*
G01*
X15550000Y41327500D02*
X15550000Y41802500D01*
G75*
G02*
X15787500Y42040000I237500J0D01*
G01*
X16287500Y42040000D01*
G75*
G02*
X16525000Y41802500I0J-237500D01*
G01*
X16525000Y41327500D01*
G75*
G02*
X16287500Y41090000I-237500J0D01*
G01*
X15787500Y41090000D01*
G75*
G02*
X15550000Y41327500I0J237500D01*
G01*
G37*
%TD*%
%TO.C,R24*%
G36*
G01*
X14612500Y45125000D02*
X15087500Y45125000D01*
G75*
G02*
X15325000Y44887500I0J-237500D01*
G01*
X15325000Y44387500D01*
G75*
G02*
X15087500Y44150000I-237500J0D01*
G01*
X14612500Y44150000D01*
G75*
G02*
X14375000Y44387500I0J237500D01*
G01*
X14375000Y44887500D01*
G75*
G02*
X14612500Y45125000I237500J0D01*
G01*
G37*
G36*
G01*
X14612500Y46950000D02*
X15087500Y46950000D01*
G75*
G02*
X15325000Y46712500I0J-237500D01*
G01*
X15325000Y46212500D01*
G75*
G02*
X15087500Y45975000I-237500J0D01*
G01*
X14612500Y45975000D01*
G75*
G02*
X14375000Y46212500I0J237500D01*
G01*
X14375000Y46712500D01*
G75*
G02*
X14612500Y46950000I237500J0D01*
G01*
G37*
%TD*%
%TO.C,R23*%
G36*
G01*
X17375000Y39827500D02*
X17375000Y40302500D01*
G75*
G02*
X17612500Y40540000I237500J0D01*
G01*
X18112500Y40540000D01*
G75*
G02*
X18350000Y40302500I0J-237500D01*
G01*
X18350000Y39827500D01*
G75*
G02*
X18112500Y39590000I-237500J0D01*
G01*
X17612500Y39590000D01*
G75*
G02*
X17375000Y39827500I0J237500D01*
G01*
G37*
G36*
G01*
X15550000Y39827500D02*
X15550000Y40302500D01*
G75*
G02*
X15787500Y40540000I237500J0D01*
G01*
X16287500Y40540000D01*
G75*
G02*
X16525000Y40302500I0J-237500D01*
G01*
X16525000Y39827500D01*
G75*
G02*
X16287500Y39590000I-237500J0D01*
G01*
X15787500Y39590000D01*
G75*
G02*
X15550000Y39827500I0J237500D01*
G01*
G37*
%TD*%
%TO.C,R22*%
G36*
G01*
X17375000Y38327500D02*
X17375000Y38802500D01*
G75*
G02*
X17612500Y39040000I237500J0D01*
G01*
X18112500Y39040000D01*
G75*
G02*
X18350000Y38802500I0J-237500D01*
G01*
X18350000Y38327500D01*
G75*
G02*
X18112500Y38090000I-237500J0D01*
G01*
X17612500Y38090000D01*
G75*
G02*
X17375000Y38327500I0J237500D01*
G01*
G37*
G36*
G01*
X15550000Y38327500D02*
X15550000Y38802500D01*
G75*
G02*
X15787500Y39040000I237500J0D01*
G01*
X16287500Y39040000D01*
G75*
G02*
X16525000Y38802500I0J-237500D01*
G01*
X16525000Y38327500D01*
G75*
G02*
X16287500Y38090000I-237500J0D01*
G01*
X15787500Y38090000D01*
G75*
G02*
X15550000Y38327500I0J237500D01*
G01*
G37*
%TD*%
%TO.C,R21*%
G36*
G01*
X17375000Y36827500D02*
X17375000Y37302500D01*
G75*
G02*
X17612500Y37540000I237500J0D01*
G01*
X18112500Y37540000D01*
G75*
G02*
X18350000Y37302500I0J-237500D01*
G01*
X18350000Y36827500D01*
G75*
G02*
X18112500Y36590000I-237500J0D01*
G01*
X17612500Y36590000D01*
G75*
G02*
X17375000Y36827500I0J237500D01*
G01*
G37*
G36*
G01*
X15550000Y36827500D02*
X15550000Y37302500D01*
G75*
G02*
X15787500Y37540000I237500J0D01*
G01*
X16287500Y37540000D01*
G75*
G02*
X16525000Y37302500I0J-237500D01*
G01*
X16525000Y36827500D01*
G75*
G02*
X16287500Y36590000I-237500J0D01*
G01*
X15787500Y36590000D01*
G75*
G02*
X15550000Y36827500I0J237500D01*
G01*
G37*
%TD*%
%TO.C,R20*%
G36*
G01*
X17375000Y35327500D02*
X17375000Y35802500D01*
G75*
G02*
X17612500Y36040000I237500J0D01*
G01*
X18112500Y36040000D01*
G75*
G02*
X18350000Y35802500I0J-237500D01*
G01*
X18350000Y35327500D01*
G75*
G02*
X18112500Y35090000I-237500J0D01*
G01*
X17612500Y35090000D01*
G75*
G02*
X17375000Y35327500I0J237500D01*
G01*
G37*
G36*
G01*
X15550000Y35327500D02*
X15550000Y35802500D01*
G75*
G02*
X15787500Y36040000I237500J0D01*
G01*
X16287500Y36040000D01*
G75*
G02*
X16525000Y35802500I0J-237500D01*
G01*
X16525000Y35327500D01*
G75*
G02*
X16287500Y35090000I-237500J0D01*
G01*
X15787500Y35090000D01*
G75*
G02*
X15550000Y35327500I0J237500D01*
G01*
G37*
%TD*%
%TO.C,R19*%
G36*
G01*
X17662500Y45125000D02*
X18137500Y45125000D01*
G75*
G02*
X18375000Y44887500I0J-237500D01*
G01*
X18375000Y44387500D01*
G75*
G02*
X18137500Y44150000I-237500J0D01*
G01*
X17662500Y44150000D01*
G75*
G02*
X17425000Y44387500I0J237500D01*
G01*
X17425000Y44887500D01*
G75*
G02*
X17662500Y45125000I237500J0D01*
G01*
G37*
G36*
G01*
X17662500Y46950000D02*
X18137500Y46950000D01*
G75*
G02*
X18375000Y46712500I0J-237500D01*
G01*
X18375000Y46212500D01*
G75*
G02*
X18137500Y45975000I-237500J0D01*
G01*
X17662500Y45975000D01*
G75*
G02*
X17425000Y46212500I0J237500D01*
G01*
X17425000Y46712500D01*
G75*
G02*
X17662500Y46950000I237500J0D01*
G01*
G37*
%TD*%
%TO.C,R18*%
G36*
G01*
X60687500Y40075000D02*
X60212500Y40075000D01*
G75*
G02*
X59975000Y40312500I0J237500D01*
G01*
X59975000Y40812500D01*
G75*
G02*
X60212500Y41050000I237500J0D01*
G01*
X60687500Y41050000D01*
G75*
G02*
X60925000Y40812500I0J-237500D01*
G01*
X60925000Y40312500D01*
G75*
G02*
X60687500Y40075000I-237500J0D01*
G01*
G37*
G36*
G01*
X60687500Y38250000D02*
X60212500Y38250000D01*
G75*
G02*
X59975000Y38487500I0J237500D01*
G01*
X59975000Y38987500D01*
G75*
G02*
X60212500Y39225000I237500J0D01*
G01*
X60687500Y39225000D01*
G75*
G02*
X60925000Y38987500I0J-237500D01*
G01*
X60925000Y38487500D01*
G75*
G02*
X60687500Y38250000I-237500J0D01*
G01*
G37*
%TD*%
%TO.C,R17*%
G36*
G01*
X60687500Y7637500D02*
X60212500Y7637500D01*
G75*
G02*
X59975000Y7875000I0J237500D01*
G01*
X59975000Y8375000D01*
G75*
G02*
X60212500Y8612500I237500J0D01*
G01*
X60687500Y8612500D01*
G75*
G02*
X60925000Y8375000I0J-237500D01*
G01*
X60925000Y7875000D01*
G75*
G02*
X60687500Y7637500I-237500J0D01*
G01*
G37*
G36*
G01*
X60687500Y9462500D02*
X60212500Y9462500D01*
G75*
G02*
X59975000Y9700000I0J237500D01*
G01*
X59975000Y10200000D01*
G75*
G02*
X60212500Y10437500I237500J0D01*
G01*
X60687500Y10437500D01*
G75*
G02*
X60925000Y10200000I0J-237500D01*
G01*
X60925000Y9700000D01*
G75*
G02*
X60687500Y9462500I-237500J0D01*
G01*
G37*
%TD*%
%TO.C,R16*%
G36*
G01*
X57575000Y40787500D02*
X57575000Y40312500D01*
G75*
G02*
X57337500Y40075000I-237500J0D01*
G01*
X56837500Y40075000D01*
G75*
G02*
X56600000Y40312500I0J237500D01*
G01*
X56600000Y40787500D01*
G75*
G02*
X56837500Y41025000I237500J0D01*
G01*
X57337500Y41025000D01*
G75*
G02*
X57575000Y40787500I0J-237500D01*
G01*
G37*
G36*
G01*
X59400000Y40787500D02*
X59400000Y40312500D01*
G75*
G02*
X59162500Y40075000I-237500J0D01*
G01*
X58662500Y40075000D01*
G75*
G02*
X58425000Y40312500I0J237500D01*
G01*
X58425000Y40787500D01*
G75*
G02*
X58662500Y41025000I237500J0D01*
G01*
X59162500Y41025000D01*
G75*
G02*
X59400000Y40787500I0J-237500D01*
G01*
G37*
%TD*%
%TO.C,R15*%
G36*
G01*
X57575000Y38987500D02*
X57575000Y38512500D01*
G75*
G02*
X57337500Y38275000I-237500J0D01*
G01*
X56837500Y38275000D01*
G75*
G02*
X56600000Y38512500I0J237500D01*
G01*
X56600000Y38987500D01*
G75*
G02*
X56837500Y39225000I237500J0D01*
G01*
X57337500Y39225000D01*
G75*
G02*
X57575000Y38987500I0J-237500D01*
G01*
G37*
G36*
G01*
X59400000Y38987500D02*
X59400000Y38512500D01*
G75*
G02*
X59162500Y38275000I-237500J0D01*
G01*
X58662500Y38275000D01*
G75*
G02*
X58425000Y38512500I0J237500D01*
G01*
X58425000Y38987500D01*
G75*
G02*
X58662500Y39225000I237500J0D01*
G01*
X59162500Y39225000D01*
G75*
G02*
X59400000Y38987500I0J-237500D01*
G01*
G37*
%TD*%
%TO.C,R14*%
G36*
G01*
X59400000Y10187500D02*
X59400000Y9712500D01*
G75*
G02*
X59162500Y9475000I-237500J0D01*
G01*
X58662500Y9475000D01*
G75*
G02*
X58425000Y9712500I0J237500D01*
G01*
X58425000Y10187500D01*
G75*
G02*
X58662500Y10425000I237500J0D01*
G01*
X59162500Y10425000D01*
G75*
G02*
X59400000Y10187500I0J-237500D01*
G01*
G37*
G36*
G01*
X57575000Y10187500D02*
X57575000Y9712500D01*
G75*
G02*
X57337500Y9475000I-237500J0D01*
G01*
X56837500Y9475000D01*
G75*
G02*
X56600000Y9712500I0J237500D01*
G01*
X56600000Y10187500D01*
G75*
G02*
X56837500Y10425000I237500J0D01*
G01*
X57337500Y10425000D01*
G75*
G02*
X57575000Y10187500I0J-237500D01*
G01*
G37*
%TD*%
%TO.C,R13*%
G36*
G01*
X57575000Y8237500D02*
X57575000Y7762500D01*
G75*
G02*
X57337500Y7525000I-237500J0D01*
G01*
X56837500Y7525000D01*
G75*
G02*
X56600000Y7762500I0J237500D01*
G01*
X56600000Y8237500D01*
G75*
G02*
X56837500Y8475000I237500J0D01*
G01*
X57337500Y8475000D01*
G75*
G02*
X57575000Y8237500I0J-237500D01*
G01*
G37*
G36*
G01*
X59400000Y8237500D02*
X59400000Y7762500D01*
G75*
G02*
X59162500Y7525000I-237500J0D01*
G01*
X58662500Y7525000D01*
G75*
G02*
X58425000Y7762500I0J237500D01*
G01*
X58425000Y8237500D01*
G75*
G02*
X58662500Y8475000I237500J0D01*
G01*
X59162500Y8475000D01*
G75*
G02*
X59400000Y8237500I0J-237500D01*
G01*
G37*
%TD*%
%TO.C,R12*%
G36*
G01*
X34087500Y40937500D02*
X34087500Y40462500D01*
G75*
G02*
X33850000Y40225000I-237500J0D01*
G01*
X33350000Y40225000D01*
G75*
G02*
X33112500Y40462500I0J237500D01*
G01*
X33112500Y40937500D01*
G75*
G02*
X33350000Y41175000I237500J0D01*
G01*
X33850000Y41175000D01*
G75*
G02*
X34087500Y40937500I0J-237500D01*
G01*
G37*
G36*
G01*
X35912500Y40937500D02*
X35912500Y40462500D01*
G75*
G02*
X35675000Y40225000I-237500J0D01*
G01*
X35175000Y40225000D01*
G75*
G02*
X34937500Y40462500I0J237500D01*
G01*
X34937500Y40937500D01*
G75*
G02*
X35175000Y41175000I237500J0D01*
G01*
X35675000Y41175000D01*
G75*
G02*
X35912500Y40937500I0J-237500D01*
G01*
G37*
%TD*%
%TO.C,R11*%
G36*
G01*
X40575000Y40937500D02*
X40575000Y40462500D01*
G75*
G02*
X40337500Y40225000I-237500J0D01*
G01*
X39837500Y40225000D01*
G75*
G02*
X39600000Y40462500I0J237500D01*
G01*
X39600000Y40937500D01*
G75*
G02*
X39837500Y41175000I237500J0D01*
G01*
X40337500Y41175000D01*
G75*
G02*
X40575000Y40937500I0J-237500D01*
G01*
G37*
G36*
G01*
X42400000Y40937500D02*
X42400000Y40462500D01*
G75*
G02*
X42162500Y40225000I-237500J0D01*
G01*
X41662500Y40225000D01*
G75*
G02*
X41425000Y40462500I0J237500D01*
G01*
X41425000Y40937500D01*
G75*
G02*
X41662500Y41175000I237500J0D01*
G01*
X42162500Y41175000D01*
G75*
G02*
X42400000Y40937500I0J-237500D01*
G01*
G37*
%TD*%
%TO.C,R10*%
G36*
G01*
X47075000Y40937500D02*
X47075000Y40462500D01*
G75*
G02*
X46837500Y40225000I-237500J0D01*
G01*
X46337500Y40225000D01*
G75*
G02*
X46100000Y40462500I0J237500D01*
G01*
X46100000Y40937500D01*
G75*
G02*
X46337500Y41175000I237500J0D01*
G01*
X46837500Y41175000D01*
G75*
G02*
X47075000Y40937500I0J-237500D01*
G01*
G37*
G36*
G01*
X48900000Y40937500D02*
X48900000Y40462500D01*
G75*
G02*
X48662500Y40225000I-237500J0D01*
G01*
X48162500Y40225000D01*
G75*
G02*
X47925000Y40462500I0J237500D01*
G01*
X47925000Y40937500D01*
G75*
G02*
X48162500Y41175000I237500J0D01*
G01*
X48662500Y41175000D01*
G75*
G02*
X48900000Y40937500I0J-237500D01*
G01*
G37*
%TD*%
%TO.C,R9*%
G36*
G01*
X53575000Y40937500D02*
X53575000Y40462500D01*
G75*
G02*
X53337500Y40225000I-237500J0D01*
G01*
X52837500Y40225000D01*
G75*
G02*
X52600000Y40462500I0J237500D01*
G01*
X52600000Y40937500D01*
G75*
G02*
X52837500Y41175000I237500J0D01*
G01*
X53337500Y41175000D01*
G75*
G02*
X53575000Y40937500I0J-237500D01*
G01*
G37*
G36*
G01*
X55400000Y40937500D02*
X55400000Y40462500D01*
G75*
G02*
X55162500Y40225000I-237500J0D01*
G01*
X54662500Y40225000D01*
G75*
G02*
X54425000Y40462500I0J237500D01*
G01*
X54425000Y40937500D01*
G75*
G02*
X54662500Y41175000I237500J0D01*
G01*
X55162500Y41175000D01*
G75*
G02*
X55400000Y40937500I0J-237500D01*
G01*
G37*
%TD*%
%TO.C,R8*%
G36*
G01*
X34087500Y8237500D02*
X34087500Y7762500D01*
G75*
G02*
X33850000Y7525000I-237500J0D01*
G01*
X33350000Y7525000D01*
G75*
G02*
X33112500Y7762500I0J237500D01*
G01*
X33112500Y8237500D01*
G75*
G02*
X33350000Y8475000I237500J0D01*
G01*
X33850000Y8475000D01*
G75*
G02*
X34087500Y8237500I0J-237500D01*
G01*
G37*
G36*
G01*
X35912500Y8237500D02*
X35912500Y7762500D01*
G75*
G02*
X35675000Y7525000I-237500J0D01*
G01*
X35175000Y7525000D01*
G75*
G02*
X34937500Y7762500I0J237500D01*
G01*
X34937500Y8237500D01*
G75*
G02*
X35175000Y8475000I237500J0D01*
G01*
X35675000Y8475000D01*
G75*
G02*
X35912500Y8237500I0J-237500D01*
G01*
G37*
%TD*%
%TO.C,R7*%
G36*
G01*
X40575000Y8237500D02*
X40575000Y7762500D01*
G75*
G02*
X40337500Y7525000I-237500J0D01*
G01*
X39837500Y7525000D01*
G75*
G02*
X39600000Y7762500I0J237500D01*
G01*
X39600000Y8237500D01*
G75*
G02*
X39837500Y8475000I237500J0D01*
G01*
X40337500Y8475000D01*
G75*
G02*
X40575000Y8237500I0J-237500D01*
G01*
G37*
G36*
G01*
X42400000Y8237500D02*
X42400000Y7762500D01*
G75*
G02*
X42162500Y7525000I-237500J0D01*
G01*
X41662500Y7525000D01*
G75*
G02*
X41425000Y7762500I0J237500D01*
G01*
X41425000Y8237500D01*
G75*
G02*
X41662500Y8475000I237500J0D01*
G01*
X42162500Y8475000D01*
G75*
G02*
X42400000Y8237500I0J-237500D01*
G01*
G37*
%TD*%
%TO.C,R6*%
G36*
G01*
X47075000Y8237500D02*
X47075000Y7762500D01*
G75*
G02*
X46837500Y7525000I-237500J0D01*
G01*
X46337500Y7525000D01*
G75*
G02*
X46100000Y7762500I0J237500D01*
G01*
X46100000Y8237500D01*
G75*
G02*
X46337500Y8475000I237500J0D01*
G01*
X46837500Y8475000D01*
G75*
G02*
X47075000Y8237500I0J-237500D01*
G01*
G37*
G36*
G01*
X48900000Y8237500D02*
X48900000Y7762500D01*
G75*
G02*
X48662500Y7525000I-237500J0D01*
G01*
X48162500Y7525000D01*
G75*
G02*
X47925000Y7762500I0J237500D01*
G01*
X47925000Y8237500D01*
G75*
G02*
X48162500Y8475000I237500J0D01*
G01*
X48662500Y8475000D01*
G75*
G02*
X48900000Y8237500I0J-237500D01*
G01*
G37*
%TD*%
%TO.C,R5*%
G36*
G01*
X53575000Y8237500D02*
X53575000Y7762500D01*
G75*
G02*
X53337500Y7525000I-237500J0D01*
G01*
X52837500Y7525000D01*
G75*
G02*
X52600000Y7762500I0J237500D01*
G01*
X52600000Y8237500D01*
G75*
G02*
X52837500Y8475000I237500J0D01*
G01*
X53337500Y8475000D01*
G75*
G02*
X53575000Y8237500I0J-237500D01*
G01*
G37*
G36*
G01*
X55400000Y8237500D02*
X55400000Y7762500D01*
G75*
G02*
X55162500Y7525000I-237500J0D01*
G01*
X54662500Y7525000D01*
G75*
G02*
X54425000Y7762500I0J237500D01*
G01*
X54425000Y8237500D01*
G75*
G02*
X54662500Y8475000I237500J0D01*
G01*
X55162500Y8475000D01*
G75*
G02*
X55400000Y8237500I0J-237500D01*
G01*
G37*
%TD*%
%TO.C,R4*%
G36*
G01*
X17417500Y11987500D02*
X17417500Y11512500D01*
G75*
G02*
X17180000Y11275000I-237500J0D01*
G01*
X16680000Y11275000D01*
G75*
G02*
X16442500Y11512500I0J237500D01*
G01*
X16442500Y11987500D01*
G75*
G02*
X16680000Y12225000I237500J0D01*
G01*
X17180000Y12225000D01*
G75*
G02*
X17417500Y11987500I0J-237500D01*
G01*
G37*
G36*
G01*
X19242500Y11987500D02*
X19242500Y11512500D01*
G75*
G02*
X19005000Y11275000I-237500J0D01*
G01*
X18505000Y11275000D01*
G75*
G02*
X18267500Y11512500I0J237500D01*
G01*
X18267500Y11987500D01*
G75*
G02*
X18505000Y12225000I237500J0D01*
G01*
X19005000Y12225000D01*
G75*
G02*
X19242500Y11987500I0J-237500D01*
G01*
G37*
%TD*%
%TO.C,R3*%
G36*
G01*
X14437500Y11512500D02*
X14437500Y11987500D01*
G75*
G02*
X14675000Y12225000I237500J0D01*
G01*
X15175000Y12225000D01*
G75*
G02*
X15412500Y11987500I0J-237500D01*
G01*
X15412500Y11512500D01*
G75*
G02*
X15175000Y11275000I-237500J0D01*
G01*
X14675000Y11275000D01*
G75*
G02*
X14437500Y11512500I0J237500D01*
G01*
G37*
G36*
G01*
X12612500Y11512500D02*
X12612500Y11987500D01*
G75*
G02*
X12850000Y12225000I237500J0D01*
G01*
X13350000Y12225000D01*
G75*
G02*
X13587500Y11987500I0J-237500D01*
G01*
X13587500Y11512500D01*
G75*
G02*
X13350000Y11275000I-237500J0D01*
G01*
X12850000Y11275000D01*
G75*
G02*
X12612500Y11512500I0J237500D01*
G01*
G37*
%TD*%
%TO.C,R2*%
G36*
G01*
X8737500Y30175000D02*
X8262500Y30175000D01*
G75*
G02*
X8025000Y30412500I0J237500D01*
G01*
X8025000Y30912500D01*
G75*
G02*
X8262500Y31150000I237500J0D01*
G01*
X8737500Y31150000D01*
G75*
G02*
X8975000Y30912500I0J-237500D01*
G01*
X8975000Y30412500D01*
G75*
G02*
X8737500Y30175000I-237500J0D01*
G01*
G37*
G36*
G01*
X8737500Y28350000D02*
X8262500Y28350000D01*
G75*
G02*
X8025000Y28587500I0J237500D01*
G01*
X8025000Y29087500D01*
G75*
G02*
X8262500Y29325000I237500J0D01*
G01*
X8737500Y29325000D01*
G75*
G02*
X8975000Y29087500I0J-237500D01*
G01*
X8975000Y28587500D01*
G75*
G02*
X8737500Y28350000I-237500J0D01*
G01*
G37*
%TD*%
%TO.C,R1*%
G36*
G01*
X8262500Y18512500D02*
X8737500Y18512500D01*
G75*
G02*
X8975000Y18275000I0J-237500D01*
G01*
X8975000Y17775000D01*
G75*
G02*
X8737500Y17537500I-237500J0D01*
G01*
X8262500Y17537500D01*
G75*
G02*
X8025000Y17775000I0J237500D01*
G01*
X8025000Y18275000D01*
G75*
G02*
X8262500Y18512500I237500J0D01*
G01*
G37*
G36*
G01*
X8262500Y20337500D02*
X8737500Y20337500D01*
G75*
G02*
X8975000Y20100000I0J-237500D01*
G01*
X8975000Y19600000D01*
G75*
G02*
X8737500Y19362500I-237500J0D01*
G01*
X8262500Y19362500D01*
G75*
G02*
X8025000Y19600000I0J237500D01*
G01*
X8025000Y20100000D01*
G75*
G02*
X8262500Y20337500I237500J0D01*
G01*
G37*
%TD*%
D26*
%TO.C,L1*%
X10400000Y41800000D03*
X7600000Y41800000D03*
%TD*%
D27*
%TO.C,J3*%
X69215000Y12920000D03*
X69215000Y15460000D03*
X69215000Y18000000D03*
X69215000Y20540000D03*
X69215000Y23080000D03*
X69215000Y25620000D03*
X69215000Y28160000D03*
X69215000Y30700000D03*
X69215000Y33240000D03*
X69215000Y35780000D03*
X66675000Y12920000D03*
X66675000Y15460000D03*
X66675000Y18000000D03*
X66675000Y20540000D03*
X66675000Y23080000D03*
X66675000Y25620000D03*
X66675000Y28160000D03*
X66675000Y30700000D03*
X66675000Y33240000D03*
G36*
G01*
X65825000Y35180000D02*
X65825000Y36380000D01*
G75*
G02*
X66075000Y36630000I250000J0D01*
G01*
X67275000Y36630000D01*
G75*
G02*
X67525000Y36380000I0J-250000D01*
G01*
X67525000Y35180000D01*
G75*
G02*
X67275000Y34930000I-250000J0D01*
G01*
X66075000Y34930000D01*
G75*
G02*
X65825000Y35180000I0J250000D01*
G01*
G37*
%TD*%
%TO.C,J2*%
X10540000Y4360000D03*
X13080000Y4360000D03*
X15620000Y4360000D03*
X18160000Y4360000D03*
X20700000Y4360000D03*
X10540000Y6900000D03*
X13080000Y6900000D03*
X15620000Y6900000D03*
X18160000Y6900000D03*
G36*
G01*
X20100000Y7750000D02*
X21300000Y7750000D01*
G75*
G02*
X21550000Y7500000I0J-250000D01*
G01*
X21550000Y6300000D01*
G75*
G02*
X21300000Y6050000I-250000J0D01*
G01*
X20100000Y6050000D01*
G75*
G02*
X19850000Y6300000I0J250000D01*
G01*
X19850000Y7500000D01*
G75*
G02*
X20100000Y7750000I250000J0D01*
G01*
G37*
%TD*%
%TO.C,FB1*%
G36*
G01*
X10525000Y32700001D02*
X10525000Y31999999D01*
G75*
G02*
X10275001Y31750000I-249999J0D01*
G01*
X9724999Y31750000D01*
G75*
G02*
X9475000Y31999999I0J249999D01*
G01*
X9475000Y32700001D01*
G75*
G02*
X9724999Y32950000I249999J0D01*
G01*
X10275001Y32950000D01*
G75*
G02*
X10525000Y32700001I0J-249999D01*
G01*
G37*
G36*
G01*
X12825000Y32700001D02*
X12825000Y31999999D01*
G75*
G02*
X12575001Y31750000I-249999J0D01*
G01*
X12024999Y31750000D01*
G75*
G02*
X11775000Y31999999I0J249999D01*
G01*
X11775000Y32700001D01*
G75*
G02*
X12024999Y32950000I249999J0D01*
G01*
X12575001Y32950000D01*
G75*
G02*
X12825000Y32700001I0J-249999D01*
G01*
G37*
%TD*%
%TO.C,F2*%
G36*
G01*
X60950000Y28610001D02*
X60950000Y27709999D01*
G75*
G02*
X60700001Y27460000I-249999J0D01*
G01*
X60049999Y27460000D01*
G75*
G02*
X59800000Y27709999I0J249999D01*
G01*
X59800000Y28610001D01*
G75*
G02*
X60049999Y28860000I249999J0D01*
G01*
X60700001Y28860000D01*
G75*
G02*
X60950000Y28610001I0J-249999D01*
G01*
G37*
G36*
G01*
X63000000Y28610001D02*
X63000000Y27709999D01*
G75*
G02*
X62750001Y27460000I-249999J0D01*
G01*
X62099999Y27460000D01*
G75*
G02*
X61850000Y27709999I0J249999D01*
G01*
X61850000Y28610001D01*
G75*
G02*
X62099999Y28860000I249999J0D01*
G01*
X62750001Y28860000D01*
G75*
G02*
X63000000Y28610001I0J-249999D01*
G01*
G37*
%TD*%
%TO.C,F1*%
G36*
G01*
X60950000Y18450001D02*
X60950000Y17549999D01*
G75*
G02*
X60700001Y17300000I-249999J0D01*
G01*
X60049999Y17300000D01*
G75*
G02*
X59800000Y17549999I0J249999D01*
G01*
X59800000Y18450001D01*
G75*
G02*
X60049999Y18700000I249999J0D01*
G01*
X60700001Y18700000D01*
G75*
G02*
X60950000Y18450001I0J-249999D01*
G01*
G37*
G36*
G01*
X63000000Y18450001D02*
X63000000Y17549999D01*
G75*
G02*
X62750001Y17300000I-249999J0D01*
G01*
X62099999Y17300000D01*
G75*
G02*
X61850000Y17549999I0J249999D01*
G01*
X61850000Y18450001D01*
G75*
G02*
X62099999Y18700000I249999J0D01*
G01*
X62750001Y18700000D01*
G75*
G02*
X63000000Y18450001I0J-249999D01*
G01*
G37*
%TD*%
D28*
%TO.C,D10*%
X61400000Y43560000D03*
D29*
X61400000Y46100000D03*
%TD*%
D28*
%TO.C,D9*%
X61400000Y5140000D03*
D29*
X61400000Y2600000D03*
%TD*%
D28*
%TO.C,D8*%
X35400000Y43560000D03*
D29*
X35400000Y46100000D03*
%TD*%
D28*
%TO.C,D7*%
X41900000Y43560000D03*
D29*
X41900000Y46100000D03*
%TD*%
D28*
%TO.C,D6*%
X48400000Y43560000D03*
D29*
X48400000Y46100000D03*
%TD*%
D28*
%TO.C,D5*%
X54900000Y43560000D03*
D29*
X54900000Y46100000D03*
%TD*%
D28*
%TO.C,D4*%
X35400000Y5140000D03*
D29*
X35400000Y2600000D03*
%TD*%
D28*
%TO.C,D3*%
X41900000Y5140000D03*
D29*
X41900000Y2600000D03*
%TD*%
D28*
%TO.C,D2*%
X48400000Y5140000D03*
D29*
X48400000Y2600000D03*
%TD*%
D28*
%TO.C,D1*%
X54900000Y5140000D03*
D29*
X54900000Y2600000D03*
%TD*%
%TO.C,C13*%
G36*
G01*
X16112500Y45225000D02*
X16587500Y45225000D01*
G75*
G02*
X16825000Y44987500I0J-237500D01*
G01*
X16825000Y44387500D01*
G75*
G02*
X16587500Y44150000I-237500J0D01*
G01*
X16112500Y44150000D01*
G75*
G02*
X15875000Y44387500I0J237500D01*
G01*
X15875000Y44987500D01*
G75*
G02*
X16112500Y45225000I237500J0D01*
G01*
G37*
G36*
G01*
X16112500Y46950000D02*
X16587500Y46950000D01*
G75*
G02*
X16825000Y46712500I0J-237500D01*
G01*
X16825000Y46112500D01*
G75*
G02*
X16587500Y45875000I-237500J0D01*
G01*
X16112500Y45875000D01*
G75*
G02*
X15875000Y46112500I0J237500D01*
G01*
X15875000Y46712500D01*
G75*
G02*
X16112500Y46950000I237500J0D01*
G01*
G37*
%TD*%
%TO.C,C12*%
G36*
G01*
X12300000Y44475000D02*
X12300000Y45425000D01*
G75*
G02*
X12550000Y45675000I250000J0D01*
G01*
X13225000Y45675000D01*
G75*
G02*
X13475000Y45425000I0J-250000D01*
G01*
X13475000Y44475000D01*
G75*
G02*
X13225000Y44225000I-250000J0D01*
G01*
X12550000Y44225000D01*
G75*
G02*
X12300000Y44475000I0J250000D01*
G01*
G37*
G36*
G01*
X10225000Y44475000D02*
X10225000Y45425000D01*
G75*
G02*
X10475000Y45675000I250000J0D01*
G01*
X11150000Y45675000D01*
G75*
G02*
X11400000Y45425000I0J-250000D01*
G01*
X11400000Y44475000D01*
G75*
G02*
X11150000Y44225000I-250000J0D01*
G01*
X10475000Y44225000D01*
G75*
G02*
X10225000Y44475000I0J250000D01*
G01*
G37*
%TD*%
%TO.C,C11*%
G36*
G01*
X11962500Y46462500D02*
X11962500Y46937500D01*
G75*
G02*
X12200000Y47175000I237500J0D01*
G01*
X12800000Y47175000D01*
G75*
G02*
X13037500Y46937500I0J-237500D01*
G01*
X13037500Y46462500D01*
G75*
G02*
X12800000Y46225000I-237500J0D01*
G01*
X12200000Y46225000D01*
G75*
G02*
X11962500Y46462500I0J237500D01*
G01*
G37*
G36*
G01*
X10237500Y46462500D02*
X10237500Y46937500D01*
G75*
G02*
X10475000Y47175000I237500J0D01*
G01*
X11075000Y47175000D01*
G75*
G02*
X11312500Y46937500I0J-237500D01*
G01*
X11312500Y46462500D01*
G75*
G02*
X11075000Y46225000I-237500J0D01*
G01*
X10475000Y46225000D01*
G75*
G02*
X10237500Y46462500I0J237500D01*
G01*
G37*
%TD*%
%TO.C,C10*%
G36*
G01*
X12512500Y38512500D02*
X12512500Y38987500D01*
G75*
G02*
X12750000Y39225000I237500J0D01*
G01*
X13350000Y39225000D01*
G75*
G02*
X13587500Y38987500I0J-237500D01*
G01*
X13587500Y38512500D01*
G75*
G02*
X13350000Y38275000I-237500J0D01*
G01*
X12750000Y38275000D01*
G75*
G02*
X12512500Y38512500I0J237500D01*
G01*
G37*
G36*
G01*
X10787500Y38512500D02*
X10787500Y38987500D01*
G75*
G02*
X11025000Y39225000I237500J0D01*
G01*
X11625000Y39225000D01*
G75*
G02*
X11862500Y38987500I0J-237500D01*
G01*
X11862500Y38512500D01*
G75*
G02*
X11625000Y38275000I-237500J0D01*
G01*
X11025000Y38275000D01*
G75*
G02*
X10787500Y38512500I0J237500D01*
G01*
G37*
%TD*%
%TO.C,C9*%
G36*
G01*
X12450000Y36475000D02*
X12450000Y37425000D01*
G75*
G02*
X12700000Y37675000I250000J0D01*
G01*
X13375000Y37675000D01*
G75*
G02*
X13625000Y37425000I0J-250000D01*
G01*
X13625000Y36475000D01*
G75*
G02*
X13375000Y36225000I-250000J0D01*
G01*
X12700000Y36225000D01*
G75*
G02*
X12450000Y36475000I0J250000D01*
G01*
G37*
G36*
G01*
X10375000Y36475000D02*
X10375000Y37425000D01*
G75*
G02*
X10625000Y37675000I250000J0D01*
G01*
X11300000Y37675000D01*
G75*
G02*
X11550000Y37425000I0J-250000D01*
G01*
X11550000Y36475000D01*
G75*
G02*
X11300000Y36225000I-250000J0D01*
G01*
X10625000Y36225000D01*
G75*
G02*
X10375000Y36475000I0J250000D01*
G01*
G37*
%TD*%
%TO.C,C6*%
G36*
G01*
X36925000Y20962500D02*
X36925000Y21437500D01*
G75*
G02*
X37162500Y21675000I237500J0D01*
G01*
X37762500Y21675000D01*
G75*
G02*
X38000000Y21437500I0J-237500D01*
G01*
X38000000Y20962500D01*
G75*
G02*
X37762500Y20725000I-237500J0D01*
G01*
X37162500Y20725000D01*
G75*
G02*
X36925000Y20962500I0J237500D01*
G01*
G37*
G36*
G01*
X35200000Y20962500D02*
X35200000Y21437500D01*
G75*
G02*
X35437500Y21675000I237500J0D01*
G01*
X36037500Y21675000D01*
G75*
G02*
X36275000Y21437500I0J-237500D01*
G01*
X36275000Y20962500D01*
G75*
G02*
X36037500Y20725000I-237500J0D01*
G01*
X35437500Y20725000D01*
G75*
G02*
X35200000Y20962500I0J237500D01*
G01*
G37*
%TD*%
%TO.C,C5*%
G36*
G01*
X25775000Y12412500D02*
X26725000Y12412500D01*
G75*
G02*
X26975000Y12162500I0J-250000D01*
G01*
X26975000Y11487500D01*
G75*
G02*
X26725000Y11237500I-250000J0D01*
G01*
X25775000Y11237500D01*
G75*
G02*
X25525000Y11487500I0J250000D01*
G01*
X25525000Y12162500D01*
G75*
G02*
X25775000Y12412500I250000J0D01*
G01*
G37*
G36*
G01*
X25775000Y14487500D02*
X26725000Y14487500D01*
G75*
G02*
X26975000Y14237500I0J-250000D01*
G01*
X26975000Y13562500D01*
G75*
G02*
X26725000Y13312500I-250000J0D01*
G01*
X25775000Y13312500D01*
G75*
G02*
X25525000Y13562500I0J250000D01*
G01*
X25525000Y14237500D01*
G75*
G02*
X25775000Y14487500I250000J0D01*
G01*
G37*
%TD*%
%TO.C,C4*%
G36*
G01*
X23412500Y31237500D02*
X23887500Y31237500D01*
G75*
G02*
X24125000Y31000000I0J-237500D01*
G01*
X24125000Y30400000D01*
G75*
G02*
X23887500Y30162500I-237500J0D01*
G01*
X23412500Y30162500D01*
G75*
G02*
X23175000Y30400000I0J237500D01*
G01*
X23175000Y31000000D01*
G75*
G02*
X23412500Y31237500I237500J0D01*
G01*
G37*
G36*
G01*
X23412500Y32962500D02*
X23887500Y32962500D01*
G75*
G02*
X24125000Y32725000I0J-237500D01*
G01*
X24125000Y32125000D01*
G75*
G02*
X23887500Y31887500I-237500J0D01*
G01*
X23412500Y31887500D01*
G75*
G02*
X23175000Y32125000I0J237500D01*
G01*
X23175000Y32725000D01*
G75*
G02*
X23412500Y32962500I237500J0D01*
G01*
G37*
%TD*%
%TO.C,C3*%
G36*
G01*
X21375000Y30950000D02*
X22325000Y30950000D01*
G75*
G02*
X22575000Y30700000I0J-250000D01*
G01*
X22575000Y30025000D01*
G75*
G02*
X22325000Y29775000I-250000J0D01*
G01*
X21375000Y29775000D01*
G75*
G02*
X21125000Y30025000I0J250000D01*
G01*
X21125000Y30700000D01*
G75*
G02*
X21375000Y30950000I250000J0D01*
G01*
G37*
G36*
G01*
X21375000Y33025000D02*
X22325000Y33025000D01*
G75*
G02*
X22575000Y32775000I0J-250000D01*
G01*
X22575000Y32100000D01*
G75*
G02*
X22325000Y31850000I-250000J0D01*
G01*
X21375000Y31850000D01*
G75*
G02*
X21125000Y32100000I0J250000D01*
G01*
X21125000Y32775000D01*
G75*
G02*
X21375000Y33025000I250000J0D01*
G01*
G37*
%TD*%
%TO.C,C2*%
G36*
G01*
X15762500Y31175000D02*
X16237500Y31175000D01*
G75*
G02*
X16475000Y30937500I0J-237500D01*
G01*
X16475000Y30337500D01*
G75*
G02*
X16237500Y30100000I-237500J0D01*
G01*
X15762500Y30100000D01*
G75*
G02*
X15525000Y30337500I0J237500D01*
G01*
X15525000Y30937500D01*
G75*
G02*
X15762500Y31175000I237500J0D01*
G01*
G37*
G36*
G01*
X15762500Y32900000D02*
X16237500Y32900000D01*
G75*
G02*
X16475000Y32662500I0J-237500D01*
G01*
X16475000Y32062500D01*
G75*
G02*
X16237500Y31825000I-237500J0D01*
G01*
X15762500Y31825000D01*
G75*
G02*
X15525000Y32062500I0J237500D01*
G01*
X15525000Y32662500D01*
G75*
G02*
X15762500Y32900000I237500J0D01*
G01*
G37*
%TD*%
%TO.C,C1*%
G36*
G01*
X13725000Y30850000D02*
X14675000Y30850000D01*
G75*
G02*
X14925000Y30600000I0J-250000D01*
G01*
X14925000Y29925000D01*
G75*
G02*
X14675000Y29675000I-250000J0D01*
G01*
X13725000Y29675000D01*
G75*
G02*
X13475000Y29925000I0J250000D01*
G01*
X13475000Y30600000D01*
G75*
G02*
X13725000Y30850000I250000J0D01*
G01*
G37*
G36*
G01*
X13725000Y32925000D02*
X14675000Y32925000D01*
G75*
G02*
X14925000Y32675000I0J-250000D01*
G01*
X14925000Y32000000D01*
G75*
G02*
X14675000Y31750000I-250000J0D01*
G01*
X13725000Y31750000D01*
G75*
G02*
X13475000Y32000000I0J250000D01*
G01*
X13475000Y32675000D01*
G75*
G02*
X13725000Y32925000I250000J0D01*
G01*
G37*
%TD*%
D20*
%TO.C,U6*%
X56950000Y35680000D03*
X56000000Y35680000D03*
X55050000Y35680000D03*
X55050000Y33480000D03*
X56950000Y33480000D03*
X56000000Y33480000D03*
%TD*%
%TO.C,U5*%
X56000000Y20750000D03*
X56950000Y20750000D03*
X55050000Y20750000D03*
X55050000Y22950000D03*
X56000000Y22950000D03*
X56950000Y22950000D03*
%TD*%
%TO.C,U4*%
X10500000Y25450000D03*
X9550000Y25450000D03*
X11450000Y25450000D03*
X11450000Y23250000D03*
X10500000Y23250000D03*
X9550000Y23250000D03*
%TD*%
%TO.C,U3*%
X56000000Y25750000D03*
X56950000Y25750000D03*
X55050000Y25750000D03*
X55050000Y27950000D03*
X56000000Y27950000D03*
X56950000Y27950000D03*
%TD*%
%TO.C,U2*%
X56000000Y13000000D03*
X56950000Y13000000D03*
X55050000Y13000000D03*
X55050000Y15200000D03*
X56000000Y15200000D03*
X56950000Y15200000D03*
%TD*%
D30*
%TO.C,Q2*%
X63950000Y39700000D03*
X61950000Y38750000D03*
X61950000Y40650000D03*
%TD*%
%TO.C,Q1*%
X61950000Y9950000D03*
X61950000Y8050000D03*
X63950000Y9000000D03*
%TD*%
M02*
